<?xml version="1.0" standalone="no"?>
<!DOCTYPE svg PUBLIC "-//W3C//DTD SVG 20010904//EN"
 "http://www.w3.org/TR/2001/REC-SVG-20010904/DTD/svg10.dtd">
<svg version="1.0" xmlns="http://www.w3.org/2000/svg"
 width="30.000000pt" height="30.000000pt" viewBox="0 0 30.000000 30.000000"
 preserveAspectRatio="xMidYMid meet">

<g transform="translate(0.000000,30.000000) scale(0.100000,-0.100000)"
fill="#FFFFFF" stroke="none">
<path d="M85 185 c33 -30 62 -55 65 -55 3 0 32 25 65 55 l60 54 -125 0 -125 0
60 -54z"/>
<path d="M10 149 l0 -73 40 39 c22 21 40 40 40 41 0 1 -18 17 -40 34 l-40 32
0 -73z"/>
<path d="M247 187 l-38 -32 41 -40 40 -39 0 72 c0 40 -1 72 -2 72 -2 -1 -20
-15 -41 -33z"/>
<path d="M65 100 l-39 -40 124 0 124 0 -39 40 c-35 36 -40 38 -55 25 -9 -8
-23 -15 -30 -15 -7 0 -21 7 -30 15 -15 13 -20 11 -55 -25z"/>
</g>
</svg>
