<?xml version="1.0" standalone="no"?>
<!DOCTYPE svg PUBLIC "-//W3C//DTD SVG 20010904//EN"
 "http://www.w3.org/TR/2001/REC-SVG-20010904/DTD/svg10.dtd">
<svg version="1.0" xmlns="http://www.w3.org/2000/svg"
 width="498.000000pt" height="498.000000pt" viewBox="0 0 498.000000 498.000000"
 preserveAspectRatio="xMidYMid meet">

<g transform="translate(0.000000,498.000000) scale(0.100000,-0.100000)"
fill="#FFFFFF" stroke="none">
<path d="M2433 4973 c31 -2 83 -2 115 0 31 2 5 3 -58 3 -63 0 -89 -1 -57 -3z"/>
<path d="M2305 4834 c-130 -14 -276 -39 -390 -68 -920 -237 -1594 -987 -1742
-1936 -21 -138 -24 -499 -4 -625 38 -250 89 -440 167 -621 328 -770 1026
-1300 1857 -1409 153 -20 441 -20 594 0 444 58 839 227 1183 504 382 308 668
752 789 1224 122 475 97 950 -75 1416 -81 220 -231 480 -381 662 -72 86 -261
274 -350 347 -301 245 -720 427 -1123 487 -109 16 -435 28 -525 19z m-585
-1437 c237 -61 389 -173 482 -355 51 -99 79 -206 81 -309 l2 -68 -264 -3
c-146 -1 -268 1 -273 6 -5 5 -13 37 -19 71 -25 157 -117 243 -274 258 l-65 6
0 215 0 215 118 -6 c73 -4 153 -15 212 -30z m1448 -889 l-3 -893 -285 0 -285
0 -3 893 -2 892 290 0 290 0 -2 -892z m1200 0 l-3 -893 -285 0 -285 0 -3 337
-2 338 -163 2 -162 3 -3 228 -2 227 165 0 165 0 0 325 0 325 290 0 290 0 -2
-892z m-3268 4 c0 -483 -3 -881 -6 -885 -8 -8 -121 35 -197 75 -83 44 -223
183 -271 269 -47 86 -79 181 -101 302 -24 133 -17 435 13 547 72 268 220 446
442 532 87 34 93 36 108 37 9 1 12 -181 12 -877z m1183 -248 c-2 -101 -31
-214 -81 -309 -44 -83 -150 -194 -236 -244 -121 -72 -292 -116 -476 -123 l-95
-3 -3 218 -2 217 49 0 c78 0 176 35 227 82 46 42 84 123 84 179 0 17 5 39 10
50 10 19 22 19 268 17 l257 -3 -2 -81z"/>
<path d="M4974 2490 c0 -58 1 -81 3 -52 2 28 2 76 0 105 -2 28 -3 5 -3 -53z"/>
</g>
</svg>
