<?xml version="1.0" standalone="no"?>
<!DOCTYPE svg PUBLIC "-//W3C//DTD SVG 20010904//EN"
 "http://www.w3.org/TR/2001/REC-SVG-20010904/DTD/svg10.dtd">
<svg version="1.0" xmlns="http://www.w3.org/2000/svg"
 width="50.000000pt" height="50.000000pt" viewBox="0 0 50.000000 50.000000"
 preserveAspectRatio="xMidYMid meet">

<g transform="translate(0.000000,50.000000) scale(0.100000,-0.100000)"
fill="#FFFFFF" stroke="none">
<path d="M70 250 l0 -230 180 0 180 0 0 163 0 163 -68 67 -68 67 -112 0 -112
0 0 -230z m330 98 c0 -4 -25 -8 -55 -8 l-55 0 0 62 0 62 55 -54 c30 -30 55
-58 55 -62z m-145 -90 c1 -44 20 -70 49 -63 26 6 51 -9 41 -25 -5 -8 -21 -10
-46 -6 -43 7 -92 -12 -102 -39 -8 -18 -47 -20 -47 -2 0 8 12 20 27 28 34 18
52 62 45 112 -4 34 -3 39 14 35 14 -2 19 -12 19 -40z"/>
<path d="M236 195 c-3 -9 0 -15 9 -15 16 0 20 16 6 24 -5 3 -11 -1 -15 -9z"/>
</g>
</svg>
