<svg version="1.1" id="Layer_1" xmlns="http://www.w3.org/2000/svg" xmlns:xlink="http://www.w3.org/1999/xlink" x="0px" y="0px"
	 width="100%" viewBox="0 0 235 214" enable-background="new 0 0 235 214" xml:space="preserve">
<path fill="#FFFFFF" opacity="1.000000" stroke="none" 
	d="
M184.604980,145.420105 
	C176.090118,140.451843 167.838638,135.772369 159.743149,130.836975 
	C158.229462,129.914169 156.697357,128.134659 156.260391,126.465950 
	C149.880859,102.103317 128.513840,90.441139 104.653664,98.456985 
	C104.200882,98.609093 103.722099,98.683784 102.488609,98.976700 
	C102.488609,80.248917 102.488609,61.763542 102.488609,42.622131 
	C97.818726,42.622131 93.839706,42.925739 89.943398,42.489922 
	C88.084930,42.282040 85.470848,41.042820 84.873596,39.584793 
	C84.301834,38.189003 85.370430,35.392849 86.628174,34.092388 
	C95.885078,24.521135 105.397392,15.197534 114.766815,5.734101 
	C117.535782,2.937356 120.046272,2.777013 122.874870,5.646734 
	C132.222549,15.130296 141.715866,24.472181 150.941025,34.072418 
	C152.204636,35.387413 153.201248,38.233284 152.618027,39.686890 
	C152.045471,41.113911 149.366806,42.280701 147.496750,42.480827 
	C143.582428,42.899715 139.592026,42.607803 135.043884,42.607803 
	C135.043884,49.741829 134.840332,56.369709 135.236679,62.961521 
	C135.305786,64.110847 137.748444,65.560982 139.354996,66.107712 
	C162.868057,74.109573 178.742966,89.669502 186.308929,113.415489 
	C189.795975,124.359665 190.008072,135.515656 188.095062,147.201355 
	C186.670624,146.491577 185.796448,146.056000 184.604980,145.420105 
z"/>
<path fill="#FFFFFF" opacity="1.000000" stroke="none" 
	d="
M12.464269,170.438141 
	C13.808868,165.383530 14.785080,160.636307 16.349827,156.091721 
	C16.964808,154.305603 18.895847,151.737228 20.227697,151.737137 
	C22.006252,151.737030 24.246229,153.549469 25.463638,155.193817 
	C27.715305,158.235123 29.368242,161.719727 31.540031,165.487106 
	C38.085918,161.762756 44.385868,158.178329 50.971062,154.431625 
	C44.647011,130.237137 48.802639,108.216354 64.496811,88.696991 
	C72.808777,78.359123 87.098869,68.931770 95.890549,68.050217 
	C95.890549,79.359222 95.945480,90.621109 95.802940,101.880501 
	C95.789169,102.968834 94.740829,104.238174 93.854027,105.092735 
	C75.729385,122.558159 76.191345,147.204941 95.006958,163.702209 
	C95.505600,164.139420 96.058769,164.514450 97.133278,165.337082 
	C80.488686,174.983078 64.354118,184.333481 47.920193,193.857391 
	C50.102459,197.680908 52.412174,201.136703 54.061546,204.883209 
	C54.812714,206.589462 54.977074,209.335297 54.066711,210.741516 
	C53.354458,211.841705 50.404495,212.277527 48.742615,211.854431 
	C35.534283,208.491699 22.395948,204.853943 9.236788,201.298157 
	C5.823349,200.375793 4.829774,198.277740 5.792149,194.877121 
	C8.054314,186.883621 10.161527,178.846252 12.464269,170.438141 
z"/>
<path fill="#FFFFFF" opacity="1.000000" stroke="none" 
	d="
M186.886475,198.800110 
	C187.827118,197.189056 188.583374,195.903427 189.758987,193.904892 
	C183.519653,190.273422 177.477386,186.600906 171.227921,183.323517 
	C170.477173,182.929810 168.380402,184.442490 167.282364,185.471558 
	C153.358078,198.521240 136.748550,204.942245 117.816368,204.695877 
	C100.994598,204.476944 85.953979,198.846451 72.500015,187.452362 
	C82.837143,181.439163 92.686417,175.649323 102.628838,170.024124 
	C103.573326,169.489746 105.215973,169.658600 106.341240,170.052704 
	C129.740036,178.248352 153.379272,161.918320 156.300110,140.113464 
	C156.402771,139.347122 156.894226,138.632843 157.372208,137.494965 
	C165.669327,142.276382 173.726151,146.915726 181.779419,151.561203 
	C189.684235,156.121078 197.585449,160.687241 205.915054,165.497101 
	C208.137909,161.675293 209.971848,157.951965 212.376495,154.643433 
	C213.475235,153.131668 215.854889,151.424393 217.368164,151.657639 
	C218.877563,151.890289 220.724045,154.241180 221.227737,156.004684 
	C224.882095,168.799423 228.211121,181.686783 231.696030,194.530457 
	C232.706512,198.254608 231.749100,200.547409 227.747177,201.590469 
	C215.034409,204.903946 202.394745,208.502289 189.651825,211.690826 
	C187.710159,212.176682 184.207489,211.750641 183.503113,210.539154 
	C182.571396,208.936691 183.404160,206.065430 184.012039,203.888489 
	C184.488144,202.183395 185.775269,200.704788 186.886475,198.800110 
z"/>
</svg>