<svg version="1.1" id="Layer_1" xmlns="http://www.w3.org/2000/svg" xmlns:xlink="http://www.w3.org/1999/xlink" x="0px" y="0px"
	 width="100%" viewBox="0 0 197 255" enable-background="new 0 0 197 255" xml:space="preserve">
<path fill="#FFFFFF" opacity="1.000000" stroke="none" 
	d="
M118.280884,177.540558 
	C123.758789,165.934128 132.755371,160.510605 145.084198,160.462326 
	C152.579041,160.432983 160.099792,160.129578 167.564056,160.625137 
	C182.755478,161.633728 193.324753,172.988266 193.535904,188.216339 
	C193.690628,199.375259 193.536240,210.538162 193.587845,221.698959 
	C193.604691,225.343872 193.514435,229.416763 189.397171,230.293549 
	C186.530792,230.903946 183.223572,229.444153 179.783249,228.852402 
	C179.783249,233.723297 179.783249,239.759583 179.783249,245.975449 
	C163.029633,245.975449 146.766632,245.975449 130.028351,245.975449 
	C130.028351,235.727036 130.028351,225.525009 130.028351,214.524475 
	C122.265274,219.850647 115.214424,224.723709 108.125954,229.541443 
	C101.136208,234.292099 97.943840,234.293900 90.886795,229.514786 
	C83.791397,224.709686 76.743530,219.834442 69.142448,214.625076 
	C69.142448,225.392288 69.142448,235.464233 69.142448,245.853302 
	C52.463245,245.853302 36.090950,245.853302 19.248930,245.853302 
	C19.248930,239.752594 19.248930,233.706421 19.248930,228.803192 
	C15.836632,229.416809 12.545180,230.898834 9.676944,230.312073 
	C5.560693,229.470016 5.396754,225.417908 5.413317,221.763565 
	C5.462390,210.935898 5.353156,200.107162 5.451962,189.280182 
	C5.609628,172.003326 17.068333,160.620209 34.380692,160.461487 
	C41.209999,160.398865 48.044170,160.306442 54.869511,160.483154 
	C71.257973,160.907471 82.566559,172.386017 82.876877,188.789398 
	C82.961937,193.285538 82.490349,197.835312 83.049736,202.262466 
	C83.362534,204.738037 84.670151,207.769272 86.552040,209.254471 
	C98.658638,218.809021 98.675957,218.576843 111.444000,210.156754 
	C114.926056,207.860443 116.120789,205.225922 116.251770,201.139908 
	C116.500549,193.379364 117.456642,185.641479 118.280884,177.540558 
z"/>
<path fill="#FFFFFF" opacity="1.000000" stroke="none" 
	d="
M113.525978,12.256347 
	C126.646240,15.274671 138.326935,20.134825 147.137329,30.240175 
	C157.553711,42.187557 157.494629,57.428337 146.765182,69.089249 
	C134.888168,81.997383 119.307465,86.553177 102.469681,88.010269 
	C101.972794,88.053268 101.470520,88.055443 100.971275,88.046837 
	C92.938713,87.908417 85.202789,87.492485 78.061546,93.209595 
	C74.241051,96.268196 68.286079,96.660637 62.440502,98.529243 
	C64.176346,93.805527 65.503487,90.277390 66.767395,86.726746 
	C67.687164,84.142899 66.728104,82.965714 64.280907,81.380180 
	C57.659676,77.090286 50.503757,72.948212 45.402824,67.131401 
	C35.033546,55.306885 36.562160,39.606750 48.233589,28.161549 
	C59.973900,16.648792 74.732582,11.889175 90.733101,11.043973 
	C98.154327,10.651958 105.653168,11.729462 113.525978,12.256347 
M77.744019,56.484322 
	C81.892082,52.462769 82.683960,48.906380 80.286827,45.064331 
	C77.921768,41.273689 73.346588,39.991669 69.419342,42.019131 
	C65.528023,44.028046 63.786602,48.657413 65.418793,52.654125 
	C67.221626,57.068672 71.599174,58.658752 77.744019,56.484322 
M95.336983,41.550636 
	C91.329735,43.247887 88.819382,46.434467 90.125465,50.527149 
	C90.997871,53.260853 93.677193,56.663410 96.167908,57.285923 
	C98.673828,57.912243 102.912102,56.242958 104.598610,54.141144 
	C106.127281,52.236027 106.145081,48.063972 105.204979,45.482964 
	C103.840164,41.735962 100.131264,40.510933 95.336983,41.550636 
M119.610901,41.877205 
	C115.589622,43.812855 113.678123,47.312515 115.161530,51.252888 
	C116.123505,53.808186 118.884979,56.822865 121.337906,57.360413 
	C123.792320,57.898281 127.993423,56.377151 129.365646,54.357044 
	C130.879654,52.128208 131.047348,47.909023 130.001144,45.270714 
	C128.457260,41.377380 124.532242,40.260204 119.610901,41.877205 
z"/>
<path fill="#FFFFFF" opacity="1.000000" stroke="none" 
	d="
M61.192524,145.209381 
	C48.279350,155.529129 32.449520,153.782578 23.689892,141.340179 
	C15.423391,129.598251 18.973736,113.288521 31.444563,105.716255 
	C41.975548,99.321861 55.398434,101.703911 63.340874,111.376663 
	C71.544373,121.367340 70.815895,134.408600 61.192524,145.209381 
z"/>
<path fill="#FFFFFF" opacity="1.000000" stroke="none" 
	d="
M174.039307,142.966431 
	C165.379532,151.898438 155.281326,154.291336 145.256699,150.025909 
	C135.723587,145.969620 129.657883,136.542801 130.002258,126.318802 
	C130.348740,116.032578 136.909119,107.124069 146.703400,103.639885 
	C157.058182,99.956299 168.527405,103.543213 175.063660,112.509338 
	C181.616043,121.497574 181.307236,133.011002 174.039307,142.966431 
z"/>
</svg>