<svg version="1.1" id="Layer_1" xmlns="http://www.w3.org/2000/svg" xmlns:xlink="http://www.w3.org/1999/xlink" x="0px" y="0px"
	 width="100%" viewBox="0 0 222 227" enable-background="new 0 0 222 227" xml:space="preserve">
<path fill="#FFFFFF" opacity="1.000000" stroke="none" 
	d="
M105.464645,228.000000 
	C87.893776,223.581665 73.301651,213.708267 57.311562,205.523407 
	C56.997242,182.941986 57.004726,161.007065 57.012215,139.072128 
	C67.305000,139.269241 78.066528,137.643448 87.768501,140.138214 
	C99.155937,143.066376 109.608849,149.606049 120.503471,154.498322 
	C122.125702,155.226791 123.937340,155.889191 125.678185,155.934418 
	C132.167282,156.103088 138.688385,155.669434 145.145370,156.154953 
	C147.985428,156.368484 151.266678,157.614792 153.361374,159.492447 
	C158.739349,164.313217 158.530960,169.888000 152.385223,173.567978 
	C147.849136,176.284134 142.408310,177.967499 137.157074,178.873383 
	C132.153259,179.736603 126.821693,178.568085 121.739571,179.175003 
	C119.744987,179.413193 118.036621,182.048218 116.197914,183.591690 
	C117.760658,185.251266 119.152596,188.075562 120.920700,188.334869 
	C124.955498,188.926590 129.236343,187.744522 133.304092,188.230362 
	C139.236053,188.938858 144.492889,186.984085 149.759888,185.101425 
	C156.488403,182.696335 161.028488,177.909958 164.053375,171.331345 
	C165.239166,168.752518 167.593201,166.176651 170.081116,164.826553 
	C179.110931,159.926422 188.280441,155.217880 197.698624,151.131638 
	C201.461670,149.498978 206.140457,148.694931 210.168137,149.241104 
	C216.977173,150.164429 220.757248,155.160477 222.651672,161.886993 
	C223.000000,162.444443 223.000000,162.888901 222.646790,163.779999 
	C221.009918,169.787292 218.027176,173.949478 213.208496,177.256393 
	C183.619827,197.562134 153.043106,215.984634 119.000000,228.000000 
	C114.643097,228.000000 110.286201,228.000000 105.464645,228.000000 
z"/>

<path fill="#FFFFFF" opacity="1.000000" stroke="none" 
	d="
M159.600006,1.000000 
	C165.082016,5.772352 162.514786,11.606200 161.937485,17.029242 
	C161.814926,18.180412 159.514832,19.692623 158.043076,19.923517 
	C156.821487,20.115162 154.303619,18.841375 154.148544,17.916801 
	C153.230347,12.442150 152.436737,6.832661 155.952057,1.390654 
	C157.066666,1.000000 158.133347,1.000000 159.600006,1.000000 
z"/>
<path fill="#FFFFFF" opacity="1.000000" stroke="none" 
	d="
M2.110652,210.017792 
	C2.054632,184.990372 1.998612,159.962952 2.145499,134.293427 
	C2.596064,133.428757 2.806242,133.175140 2.978939,132.890472 
	C16.349186,132.870972 29.719433,132.851456 43.684002,133.156876 
	C44.593693,133.619034 44.909058,133.756256 45.224422,133.893494 
	C45.224422,133.893494 45.083290,133.913132 45.161705,134.099884 
	C45.490429,134.523758 45.740738,134.760880 45.991043,134.998016 
	C46.062939,159.691986 46.134834,184.385956 45.776039,209.542175 
	C45.125198,210.022949 44.905048,210.041504 44.236206,210.075500 
	C30.310781,210.073761 16.834053,210.056595 3.045941,210.017609 
	C2.526589,210.003143 2.318621,210.010468 2.110652,210.017792 
z"/>
<path fill="#FFFFFF" opacity="1.000000" stroke="none" 
	d="
M189.365936,57.836002 
	C194.089096,71.088730 191.975967,83.118095 184.496872,94.259407 
	C180.515076,100.190941 176.152939,105.879707 171.718903,111.485367 
	C170.735565,112.728531 168.791779,113.672821 167.177383,113.881416 
	C156.471542,115.264702 145.734985,116.410133 135.679779,117.556412 
	C129.889542,108.587029 123.743965,100.173782 118.756355,91.122467 
	C106.440338,68.771843 116.995064,41.425484 140.140442,34.601383 
	C160.154465,28.700518 180.832520,38.335739 189.365936,57.836002 
M163.669144,60.411499 
	C162.305923,57.870781 160.942703,55.330063 159.153961,51.996307 
	C161.459930,51.996307 162.906418,52.441761 163.661301,51.908382 
	C165.531693,50.586819 168.041473,49.035183 168.468048,47.160412 
	C168.816071,45.630810 166.906052,42.638802 165.276810,41.913536 
	C164.014618,41.351658 160.929153,42.779839 159.894455,44.216579 
	C157.051315,48.164452 155.557571,46.437477 153.769455,43.511753 
	C150.331558,37.886673 148.692917,37.662849 143.567886,41.855671 
	C141.338333,43.679676 141.055389,45.454468 143.855438,46.805626 
	C146.562744,48.112038 147.989716,50.206322 146.461884,52.742451 
	C145.533020,54.284332 143.137161,55.726135 141.346893,55.793495 
	C138.150070,55.913769 137.774567,53.184212 137.538513,50.465889 
	C137.438705,49.316460 135.630020,47.229492 135.326096,47.353458 
	C132.600555,48.465191 129.788742,49.684731 127.595207,51.564484 
	C127.022964,52.054867 128.257629,55.107754 129.123642,56.738842 
	C131.910446,61.987629 131.947556,61.740177 126.107811,63.060833 
	C124.572311,63.408085 122.502258,65.328362 122.332802,66.726837 
	C122.144768,68.278618 123.459091,70.762001 124.846924,71.537437 
	C126.149292,72.265114 128.962433,71.952156 130.137619,70.952751 
	C134.917740,66.887634 134.772171,66.730080 138.165085,72.434494 
	C138.835602,73.561798 139.590576,74.638870 140.091873,75.409164 
	C143.713348,73.995300 147.069763,72.684914 151.201996,71.071640 
	C151.045746,73.698082 150.968262,75.000397 150.854996,76.904068 
	C147.662994,72.296150 145.285995,75.654686 142.988434,76.781250 
	C140.361115,78.069489 141.051117,80.067551 142.262360,82.210617 
	C145.693695,88.281738 145.580597,88.144623 139.788834,89.817436 
	C138.353897,90.231880 136.324814,92.227173 136.395752,93.383751 
	C136.508392,95.220825 137.782486,97.494987 139.289261,98.558891 
	C140.287720,99.263878 143.029343,98.747581 144.164597,97.794304 
	C148.963776,93.764458 148.773071,93.679115 152.097977,98.890923 
	C152.877640,100.113075 154.867523,101.941452 155.458572,101.668381 
	C158.093735,100.450890 160.423615,98.572617 162.863785,96.933090 
	C161.847519,95.617767 160.455292,94.440506 159.908859,92.952629 
	C159.204834,91.035614 158.276154,88.350525 159.087006,86.941833 
	C160.113693,85.158142 162.749283,83.494308 164.774460,83.389343 
	C166.019852,83.324799 168.216812,86.102165 168.595230,87.896828 
	C169.527084,92.316254 170.453766,93.139809 174.400864,91.074936 
	C176.272690,90.095711 178.002335,88.844666 179.980682,87.600899 
	C178.889832,85.641571 177.731827,84.145332 177.213226,82.453133 
	C176.765106,80.990799 177.043671,79.305771 177.734863,77.789490 
	C179.176529,77.200340 180.618210,76.611191 182.795288,75.764626 
	C185.267365,73.026344 184.886734,70.329636 182.220245,68.154129 
	C179.090225,65.600441 176.841812,67.442871 174.435410,70.305489 
	C174.356537,70.875488 174.277679,71.445488 173.422852,72.121346 
	C171.998627,70.970734 170.487701,69.910248 169.173264,68.645531 
	C167.699753,67.227745 166.403992,65.625198 165.014542,63.410576 
	C164.686691,62.609749 164.358841,61.808926 163.669144,60.411499 
z"/>
<path fill="#FFFFFF" opacity="1.000000" stroke="none" 
	d="
M158.513672,131.547272 
	C161.087646,131.242188 163.218063,131.020966 165.325531,130.802139 
	C166.647873,137.163452 166.396896,137.468307 160.595734,138.138092 
	C153.032318,139.011353 145.481003,139.989334 137.550735,140.968414 
	C136.973206,138.845459 136.428375,136.842667 135.854538,134.733261 
	C143.455109,133.671936 150.762604,132.651535 158.513672,131.547272 
z"/>
<path fill="#FFFFFF" opacity="1.000000" stroke="none" 
	d="
M164.957779,125.203690 
	C155.223297,126.376740 145.901215,127.478401 136.228088,128.621567 
	C136.058578,126.613632 135.924622,125.026779 135.758194,123.055374 
	C146.127182,121.851814 156.368744,120.663055 167.454254,119.376328 
	C166.625778,121.664482 165.997986,123.398399 164.957779,125.203690 
z"/>
<path fill="#FFFFFF" opacity="1.000000" stroke="none" 
	d="
M85.118698,65.395294 
	C87.968987,62.348640 99.192383,60.867359 101.840561,63.162750 
	C103.010551,64.176888 104.065155,66.320862 103.811020,67.701332 
	C103.556274,69.085060 101.712318,71.037056 100.378204,71.198669 
	C96.487694,71.669945 92.399139,71.887405 88.608574,71.118324 
	C87.106331,70.813530 86.184654,67.647232 85.118698,65.395294 
z"/>
<path fill="#FFFFFF" opacity="1.000000" stroke="none" 
	d="
M220.522064,65.941956 
	C218.904221,67.672028 217.478806,69.764030 215.639938,70.232216 
	C212.491898,71.033730 208.970596,71.407814 205.832458,70.797371 
	C204.110413,70.462395 201.908890,67.890236 201.633575,66.068398 
	C201.323502,64.016571 202.729126,62.091892 206.105194,62.741951 
	C208.430527,63.189693 211.089157,61.682217 213.634415,61.266544 
	C217.105011,60.699764 219.634995,61.890804 220.522064,65.941956 
z"/>
<path fill="#FFFFFF" opacity="1.000000" stroke="none" 
	d="
M196.335388,35.620674 
	C190.950058,35.071560 189.220825,32.268478 191.577515,28.128908 
	C193.126221,25.408600 194.799591,22.510622 197.149109,20.585590 
	C198.622879,19.378080 201.673737,19.174786 203.578323,19.818626 
	C204.473373,20.121193 205.264648,24.033291 204.484787,25.354712 
	C202.339050,28.990574 199.338348,32.121853 196.335388,35.620674 
z"/>
<path fill="#FFFFFF" opacity="1.000000" stroke="none" 
	d="
M112.841476,18.170683 
	C114.267410,19.599037 115.932205,20.582748 116.482269,21.999319 
	C117.147652,23.712896 117.668625,26.826836 116.820465,27.482321 
	C115.394981,28.583990 112.193848,29.174250 110.888062,28.287909 
	C107.780182,26.178350 104.994133,23.328442 102.809212,20.257435 
	C101.944588,19.042168 102.382309,15.998259 103.371658,14.592536 
	C104.631210,12.802896 106.871765,12.363261 108.719185,14.826365 
	C109.677925,16.104620 111.276749,16.902788 112.841476,18.170683 
z"/>
<path fill="#FFFFFF" opacity="1.000000" stroke="none" 
	d="
M56.588764,139.048645 
	C57.004726,161.007065 56.997242,182.941986 57.012985,205.331070 
	C56.422733,204.777008 55.278748,203.771271 55.274014,202.760208 
	C55.176819,182.023270 55.202847,161.285721 55.256176,140.548416 
	C55.257484,140.039902 55.849049,139.532883 56.588764,139.048645 
z"/>
<path fill="#FFFFFF" opacity="1.000000" stroke="none" 
	d="
M3.357330,210.039413 
	C16.834053,210.056595 30.310781,210.073761 44.395470,210.288574 
	C45.311878,210.647263 45.620327,210.808334 45.928780,210.969391 
	C45.420532,211.260971 44.911880,211.807739 44.404095,211.806931 
	C30.382050,211.784821 16.360092,211.707016 2.055780,211.299973 
	C1.773442,210.961487 2.004162,210.824036 2.333407,210.799286 
	C2.894213,210.529480 3.125774,210.284439 3.357330,210.039413 
z"/>
<path fill="#FFFFFF" opacity="1.000000" stroke="none" 
	d="
M154.861130,149.912720 
	C146.631851,150.684494 145.588791,150.427185 140.925919,145.922501 
	C148.094498,145.403152 154.319427,144.952179 160.544342,144.501190 
	C160.749527,145.093536 160.954727,145.685883 161.159912,146.278214 
	C159.183578,147.458603 157.207245,148.638977 154.861130,149.912720 
z"/>
<path fill="#FFFFFF" opacity="1.000000" stroke="none" 
	d="
M2.701164,132.825546 
	C2.806242,133.175140 2.596064,133.428757 2.171781,133.825363 
	C1.945406,133.830246 1.895656,133.661072 1.868272,133.228333 
	C2.068221,132.896713 2.245805,132.828659 2.701164,132.825546 
z"/>
<path fill="#FFFFFF" opacity="1.000000" stroke="none" 
	d="
M45.124966,133.620346 
	C44.909058,133.756256 44.593693,133.619034 44.143646,133.258606 
	C44.347813,133.139328 44.686661,133.243271 45.124966,133.620346 
z"/>
<path fill="#FFFFFF" opacity="1.000000" stroke="none" 
	d="
M46.025166,134.703461 
	C45.740738,134.760880 45.490429,134.523758 45.170494,134.029175 
	C45.420338,133.984116 45.739811,134.196518 46.025166,134.703461 
z"/>
<path fill="#FFFFFF" opacity="1.000000" stroke="none" 
	d="
M46.037868,210.734100 
	C45.620327,210.808334 45.311878,210.647263 44.844166,210.273117 
	C44.905048,210.041504 45.125198,210.022949 45.676735,210.001709 
	C46.054401,210.165588 46.100681,210.332184 46.037868,210.734100 
z"/>
<path fill="#FFFFFF" opacity="1.000000" stroke="none" 
	d="
M3.045946,210.017609 
	C3.125774,210.284439 2.894213,210.529480 2.434907,210.887192 
	C2.143955,210.840805 2.080749,210.681747 2.064098,210.270248 
	C2.318621,210.010468 2.526589,210.003143 3.045946,210.017609 
z"/>
<path fill="#FFFFFF" opacity="1.000000" stroke="none" 
	d="
M165.022705,63.756817 
	C163.350189,65.135658 161.525604,66.001434 160.051071,67.273109 
	C159.342056,67.884598 159.293716,69.262184 158.891037,70.717941 
	C158.835876,71.143036 158.587021,71.361671 158.587021,71.361671 
	C154.816254,69.940178 154.976318,68.037514 157.948608,65.858192 
	C159.892075,64.433212 161.886292,63.077454 163.944382,61.349392 
	C164.358841,61.808926 164.686691,62.609749 165.022705,63.756817 
z"/>

<path fill="#FFFFFF" opacity="1.000000" stroke="none" 
	d="
M155.990662,79.979614 
	C161.239151,77.927132 161.780899,76.470573 158.792450,71.628075 
	C158.587021,71.361671 158.835876,71.143036 158.958542,71.031403 
	C160.465088,72.795975 162.855911,74.589821 163.017517,76.565964 
	C163.327789,80.359955 160.112671,81.577248 156.367035,81.647408 
	C155.965668,80.861938 155.978165,80.420776 155.990662,79.979614 
z"/>

</svg>