<svg version="1.1" id="Layer_1" xmlns="http://www.w3.org/2000/svg" xmlns:xlink="http://www.w3.org/1999/xlink" x="0px" y="0px"
	 width="100%" viewBox="0 0 267 189" enable-background="new 0 0 267 189" xml:space="preserve">
<path fill="#FFFFFF" opacity="1.000000" stroke="none" 
	d="
M32.901016,78.818565 
	C34.291195,72.167679 35.681370,65.516792 37.241180,58.321686 
	C37.718105,57.592358 37.881210,57.320702 37.900131,56.962509 
	C37.900131,56.962509 37.975742,56.984322 38.282883,56.862610 
	C43.161510,51.532745 47.733006,46.324585 52.304497,41.116428 
	C52.304497,41.116428 52.710655,41.033646 53.080238,40.867386 
	C53.752251,40.555588 53.907749,40.315056 53.916309,39.979519 
	C53.916309,39.979519 53.982536,39.998634 54.283722,39.901123 
	C55.771767,38.991749 56.958626,38.179882 58.145485,37.368015 
	C66.718620,33.491341 75.595825,30.424006 85.102402,31.079769 
	C104.397636,32.410751 119.352585,40.787384 127.389893,59.134365 
	C129.099609,63.037189 129.803268,67.380753 131.102997,72.085342 
	C130.824036,73.097923 130.412506,73.546425 129.962708,73.632759 
	C129.143173,69.788445 127.373253,70.383942 124.427231,71.094826 
	C115.367523,73.280952 105.917404,74.043282 97.050438,76.764618 
	C91.314705,78.524963 84.005623,73.390862 79.692253,80.789017 
	C79.499474,81.119659 78.426781,80.923798 77.766647,80.997429 
	C62.853752,82.660820 47.941227,84.327599 33.023018,85.547577 
	C32.978603,83.007126 32.939808,80.912849 32.901016,78.818565 
z"/>
<path fill="#FFFFFF" opacity="1.000000" stroke="none" 
	d="
M182.788406,32.991943 
	C185.178497,20.566284 200.458267,11.882728 212.114471,16.173269 
	C214.183960,16.935028 216.706131,16.475622 218.766937,17.250887 
	C233.027084,22.615465 239.089996,40.117542 227.337570,51.532627 
	C222.576202,56.157314 217.163864,60.107296 212.314941,64.649529 
	C211.131210,65.758377 211.000046,67.990845 209.940216,70.196365 
	C208.747772,72.092857 208.001450,74.676277 207.251999,74.677185 
	C205.308868,74.679558 203.364349,73.545013 201.434723,72.417259 
	C200.328232,64.908638 203.029938,58.825710 206.278183,52.857193 
	C209.320984,47.266193 211.817947,41.527164 210.279678,34.506367 
	C210.060059,33.683979 209.784348,33.259426 209.447784,32.690933 
	C209.313828,32.339581 209.188873,32.170280 209.096512,31.675873 
	C208.504410,29.840406 207.827850,28.368158 206.936996,26.607922 
	C204.734634,25.961538 202.746552,25.603144 199.842911,25.079700 
	C201.574326,29.213657 202.749741,32.020077 203.603119,35.063278 
	C203.021667,39.078896 203.066513,42.990906 198.595047,45.143944 
	C189.209198,48.102005 183.359360,43.472179 182.788406,32.991943 
z"/>
<path fill="#FFFFFF" opacity="1.000000" stroke="none" 
	d="
M207.933838,77.971001 
	C213.462509,79.308685 218.179367,84.172577 218.826355,89.203110 
	C219.478897,94.276741 216.589417,99.429497 211.565689,102.150871 
	C206.317810,104.993668 201.969620,104.167992 196.976013,100.839005 
	C192.800766,98.055588 190.228622,93.667023 190.958466,89.879524 
	C191.968750,84.636795 194.942627,79.142059 202.015594,78.915115 
	C202.442627,78.901405 202.855835,78.456894 203.992279,78.109375 
	C205.783997,77.994270 206.858917,77.982635 207.933838,77.971001 
z"/>
<path fill="#FFFFFF" opacity="1.000000" stroke="none" 
	d="
M130.000977,73.994926 
	C130.412506,73.546425 130.824036,73.097923 131.191727,72.413673 
	C134.991791,74.913666 138.835709,77.649406 142.738403,80.898476 
	C142.598465,81.695236 142.333649,81.887802 141.769714,81.715721 
	C137.674194,80.841980 133.719620,79.402267 129.968094,79.813766 
	C121.706268,80.719978 113.546638,82.558876 105.345863,84.020340 
	C100.392120,84.903152 95.435631,85.771309 90.487480,86.684570 
	C86.496887,87.421097 82.544518,88.432411 78.527039,88.942871 
	C66.940178,90.415131 55.278690,91.384064 43.758015,93.242050 
	C40.314545,93.797394 34.849472,92.059616 33.879879,98.199753 
	C33.427032,91.990089 32.974186,85.780434 32.711178,79.194672 
	C32.939808,80.912849 32.978603,83.007126 33.013126,85.954437 
	C33.094566,88.375465 33.180275,89.943451 33.270344,91.591125 
	C36.315655,90.379669 38.761963,88.905594 41.385227,88.449654 
	C52.741280,86.475883 64.135658,84.708321 75.541222,83.037209 
	C91.637604,80.678818 107.763237,78.519737 123.856659,76.142044 
	C125.964493,75.830620 127.955734,74.730019 130.000977,73.994926 
z"/>
<path fill="#FFFFFF" opacity="1.000000" stroke="none" 
	d="
M33.836811,98.501198 
	C34.849472,92.059616 40.314545,93.797394 43.758015,93.242050 
	C55.278690,91.384064 66.940178,90.415131 78.527039,88.942871 
	C82.544518,88.432411 86.496887,87.421097 90.487480,86.684570 
	C95.435631,85.771309 100.392120,84.903152 105.345863,84.020340 
	C113.546638,82.558876 121.706268,80.719978 129.968094,79.813766 
	C133.719620,79.402267 137.674194,80.841980 141.475616,81.933411 
	C139.014893,83.283043 136.676224,84.478615 134.202240,84.926041 
	C129.670349,85.745667 125.025467,85.936150 120.489304,86.737602 
	C115.812859,87.563835 111.259491,89.206497 106.565071,89.788078 
	C94.046555,91.338943 81.470718,92.420998 68.938332,93.868385 
	C61.309761,94.749420 53.697098,95.826767 46.121052,97.080399 
	C42.083282,97.748543 38.138550,98.978928 34.151829,99.955551 
	C34.032467,99.571251 33.913105,99.186943 33.836811,98.501198 
z"/>
<path fill="#FFFFFF" opacity="1.000000" stroke="none" 
	d="
M150.917023,133.979279 
	C148.732269,135.317764 146.700974,137.272720 144.329956,137.862976 
	C139.765457,138.999298 134.969421,139.180969 130.358658,140.173187 
	C129.171448,140.428665 128.316254,142.227051 126.797775,143.813080 
	C125.333336,144.510849 124.387817,144.824219 123.424606,144.894226 
	C119.088654,145.209457 114.711784,145.193192 110.415962,145.780991 
	C101.306252,147.027496 92.220787,148.476517 83.158119,150.033142 
	C76.436043,151.187729 69.765564,152.642822 63.072105,153.964050 
	C62.431583,151.218674 61.791061,148.473312 61.569824,145.358215 
	C64.325851,144.991943 66.662590,144.995361 69.407547,145.000641 
	C71.760536,145.214706 73.778847,145.873138 75.638153,145.566711 
	C87.666016,143.584564 99.651649,141.347931 111.667473,139.290161 
	C116.462563,138.468964 121.284767,137.748779 126.122467,137.255783 
	C128.924240,136.970245 131.835739,137.585892 134.602188,137.165909 
	C140.075577,136.334946 145.482574,135.066727 150.917023,133.979279 
z"/>
<path fill="#FFFFFF" opacity="1.000000" stroke="none" 
	d="
M147.099670,84.816002 
	C147.786987,86.627281 148.474319,88.438560 148.837463,90.755417 
	C148.405426,91.566322 148.297562,91.871651 148.189697,92.176987 
	C148.189697,92.176987 148.187500,92.020226 147.929962,92.163483 
	C147.438171,92.805550 147.203934,93.304375 146.969696,93.803200 
	C146.969696,93.803200 146.741150,94.057014 146.203339,94.158951 
	C144.106033,95.647156 142.546555,97.033409 141.096359,98.322533 
	C140.452881,98.048889 139.230408,97.529022 137.657074,96.854797 
	C131.222900,97.455307 125.120430,98.083160 119.061035,98.996765 
	C111.251297,100.174263 103.505066,101.802513 95.677719,102.825058 
	C88.057213,103.820587 80.369759,104.306595 72.709656,104.993530 
	C71.063316,105.141159 69.369728,104.998924 67.764076,105.320557 
	C61.997623,106.475624 56.184135,107.507538 50.539104,109.115120 
	C47.176388,110.072746 42.503910,108.430710 40.799389,113.322128 
	C39.561852,111.461769 38.324310,109.601418 37.246780,107.296944 
	C38.271839,106.235519 39.136887,105.618217 40.470375,105.001495 
	C50.417110,104.476288 59.820084,105.624252 69.369141,102.692177 
	C79.451698,99.596283 90.213394,98.610428 100.731331,97.062347 
	C111.614120,95.460564 122.571960,94.371483 133.463715,92.824036 
	C134.750381,92.641243 135.827133,90.981056 137.392136,90.004082 
	C140.888626,88.273621 143.994141,86.544815 147.099670,84.816002 
z"/>
<path fill="#FFFFFF" opacity="1.000000" stroke="none" 
	d="
M40.001930,105.000916 
	C39.136887,105.618217 38.271839,106.235519 37.108044,106.986771 
	C35.943851,104.970985 35.078403,102.821274 34.182396,100.313553 
	C38.138550,98.978928 42.083282,97.748543 46.121052,97.080399 
	C53.697098,95.826767 61.309761,94.749420 68.938332,93.868385 
	C81.470718,92.420998 94.046555,91.338943 106.565071,89.788078 
	C111.259491,89.206497 115.812859,87.563835 120.489304,86.737602 
	C125.025467,85.936150 129.670349,85.745667 134.202240,84.926041 
	C136.676224,84.478615 139.014893,83.283043 141.708679,82.207184 
	C142.333649,81.887802 142.598465,81.695236 142.919205,81.194267 
	C144.310867,82.062035 145.580536,83.147331 146.974945,84.524315 
	C143.994141,86.544815 140.888626,88.273621 137.125916,89.717567 
	C134.686371,89.439621 132.852005,89.177856 131.132629,89.510452 
	C127.753456,90.164146 124.483589,91.504623 121.089035,91.936821 
	C101.662643,94.410225 82.207542,96.657135 62.774155,99.077072 
	C56.407234,99.869919 50.048466,100.805908 43.750206,102.011917 
	C42.360939,102.277931 41.244175,103.967079 40.001930,105.000916 
z"/>
<path fill="#FFFFFF" opacity="1.000000" stroke="none" 
	d="
M127.042038,150.991272 
	C127.341507,152.717896 127.640968,154.444504 127.559776,156.574402 
	C122.518227,157.794510 117.870651,158.698608 113.193893,159.411285 
	C100.649612,161.322845 88.063950,162.982513 75.557014,165.108704 
	C71.297646,165.832794 66.358795,164.923233 63.067734,168.973557 
	C63.056389,166.244858 63.045044,163.516174 63.456772,160.381348 
	C73.130188,158.648148 82.403244,157.456863 91.617798,155.915771 
	C94.593483,155.418106 97.350410,153.677216 100.322929,153.080688 
	C104.800262,152.182159 109.363762,151.588043 113.919319,151.240173 
	C118.274498,150.907578 122.666321,151.054901 127.042038,150.991272 
z"/>
<path fill="#FFFFFF" opacity="1.000000" stroke="none" 
	d="
M63.043297,169.363373 
	C66.358795,164.923233 71.297646,165.832794 75.557014,165.108704 
	C88.063950,162.982513 100.649612,161.322845 113.193893,159.411285 
	C117.870651,158.698608 122.518227,157.794510 127.539566,156.974167 
	C127.319054,158.749954 126.738106,160.529282 125.700653,162.667450 
	C121.644585,163.928635 118.082222,165.037354 114.438400,165.694122 
	C104.071136,167.562714 93.654907,169.160645 83.291458,171.048965 
	C79.472725,171.744781 75.747650,172.954544 71.979851,173.929886 
	C68.507072,173.579865 63.907967,175.646362 63.043297,169.363373 
z"/>
<path fill="#FFFFFF" opacity="1.000000" stroke="none" 
	d="
M40.842857,113.614212 
	C42.503910,108.430710 47.176388,110.072746 50.539104,109.115120 
	C56.184135,107.507538 61.997623,106.475624 67.764076,105.320557 
	C69.369728,104.998924 71.063316,105.141159 72.709656,104.993530 
	C80.369759,104.306595 88.057213,103.820587 95.677719,102.825058 
	C103.505066,101.802513 111.251297,100.174263 119.061035,98.996765 
	C125.120430,98.083160 131.222900,97.455307 137.655167,97.226059 
	C137.936340,98.868011 137.868576,99.984352 137.840698,100.443771 
	C135.449280,100.321220 133.325180,99.851158 131.336166,100.185295 
	C127.136314,100.890823 122.986031,101.935959 118.859154,103.009888 
	C117.179497,103.446991 115.613655,104.321472 113.528595,104.997131 
	C103.489120,103.253319 94.686607,107.809097 85.391632,108.391388 
	C81.446709,108.638519 77.519066,109.191742 73.590538,109.663887 
	C66.290405,110.541260 59.484371,114.382042 51.791019,113.126595 
	C50.007938,112.835625 48.058353,113.564995 46.000641,113.850494 
	C46.000641,115.027901 46.000641,116.019257 45.620857,117.010880 
	C44.481735,117.028214 43.722393,117.045288 42.963051,117.062355 
	C42.963051,117.062355 42.983734,117.024628 42.966583,116.734695 
	C42.447567,115.942055 41.945702,115.439354 41.443832,114.936646 
	C41.257999,114.593193 41.072166,114.249741 40.842857,113.614212 
z"/>
<path fill="#FFFFFF" opacity="1.000000" stroke="none" 
	d="
M55.981594,133.015137 
	C54.298592,131.292099 52.615589,129.569061 51.145767,127.443733 
	C51.564617,127.017685 51.770283,126.993927 52.410362,126.983131 
	C57.076481,126.430092 61.294781,125.719635 65.542435,125.325668 
	C77.435364,124.222610 88.939934,120.005043 101.096550,120.943359 
	C102.487968,121.050758 103.945534,120.421318 105.360176,120.082375 
	C108.178535,119.407104 110.959625,118.267242 113.806839,118.076530 
	C124.477753,117.361755 134.953720,115.832520 145.251770,111.904709 
	C146.331360,111.873619 147.160019,111.936874 147.886627,112.359390 
	C147.816635,115.140366 147.848694,117.562065 147.660721,119.986687 
	C147.440689,119.989601 147.000595,119.991234 146.857117,119.671143 
	C145.887573,118.708923 144.990799,117.436607 144.246216,117.520180 
	C134.673370,118.594749 125.122246,119.862778 115.565735,121.082626 
	C115.401962,121.103531 115.217964,121.093575 115.079445,121.166481 
	C108.106773,124.836273 100.534058,124.753387 92.933395,125.195282 
	C89.559341,125.391441 86.306137,127.666267 82.665115,128.997681 
	C81.888191,128.997940 81.444237,128.998062 80.944580,128.658020 
	C75.905075,128.803635 70.915192,129.241074 65.948921,129.866135 
	C65.548309,129.916550 65.309883,131.255524 64.621597,131.996185 
	C63.498138,131.997055 62.749161,131.997482 61.778477,131.733307 
	C60.370426,131.976883 59.184086,132.485092 57.661732,132.993683 
	C56.877678,133.001099 56.429638,133.008118 55.981594,133.015137 
z"/>
<path fill="#FFFFFF" opacity="1.000000" stroke="none" 
	d="
M127.041733,150.554749 
	C122.666321,151.054901 118.274498,150.907578 113.919319,151.240173 
	C109.363762,151.588043 104.800262,152.182159 100.322929,153.080688 
	C97.350410,153.677216 94.593483,155.418106 91.617798,155.915771 
	C82.403244,157.456863 73.130188,158.648148 63.471718,159.978531 
	C63.046658,158.263245 63.029720,156.544617 63.042442,154.395020 
	C69.765564,152.642822 76.436043,151.187729 83.158119,150.033142 
	C92.220787,148.476517 101.306252,147.027496 110.415962,145.780991 
	C114.711784,145.193192 119.088654,145.209457 123.424606,144.894226 
	C124.387817,144.824219 125.333336,144.510849 126.643372,144.157196 
	C127.013626,146.042664 127.027519,148.080460 127.041733,150.554749 
z"/>
<path fill="#FFFFFF" opacity="1.000000" stroke="none" 
	d="
M151.192108,133.760468 
	C145.482574,135.066727 140.075577,136.334946 134.602188,137.165909 
	C131.835739,137.585892 128.924240,136.970245 126.122467,137.255783 
	C121.284767,137.748779 116.462563,138.468964 111.667473,139.290161 
	C99.651649,141.347931 87.666016,143.584564 75.638153,145.566711 
	C73.778847,145.873138 71.760536,145.214706 69.468323,144.645416 
	C71.606155,143.167984 73.994263,141.450165 76.593018,141.027542 
	C90.072533,138.835358 103.602234,136.948883 117.121964,135.008194 
	C123.301758,134.121124 129.558365,133.654831 135.670410,132.443863 
	C141.211853,131.345947 146.604279,129.495895 152.287933,127.991020 
	C152.513474,128.004578 152.962875,128.062302 152.962875,128.062302 
	C152.464310,129.888748 151.965744,131.715210 151.192108,133.760468 
z"/>
<path fill="#FFFFFF" opacity="1.000000" stroke="none" 
	d="
M152.062408,127.977463 
	C146.604279,129.495895 141.211853,131.345947 135.670410,132.443863 
	C129.558365,133.654831 123.301758,134.121124 117.121964,135.008194 
	C103.602234,136.948883 90.072533,138.835358 76.593018,141.027542 
	C73.994263,141.450165 71.606155,143.167984 69.060104,144.643555 
	C66.662590,144.995361 64.325851,144.991943 61.558220,144.979919 
	C60.767090,143.877426 60.406849,142.783524 60.285923,141.163834 
	C61.683155,139.427383 62.841072,138.216751 64.079880,137.385406 
	C66.455177,137.991150 68.759155,138.454803 71.040718,138.362793 
	C72.627922,138.298798 74.157829,137.187668 75.759460,137.038025 
	C80.781418,136.568802 85.864532,136.612274 90.846848,135.910095 
	C94.214478,135.435501 97.391670,133.660843 100.758759,133.122116 
	C112.469101,131.248489 124.241890,129.765778 135.953995,127.902237 
	C139.695236,127.306953 143.321640,125.989861 147.339142,124.973343 
	C148.754944,124.622337 149.832184,124.301003 150.951859,124.330017 
	C151.350327,125.779396 151.706360,126.878433 152.062408,127.977463 
z"/>
<path fill="#FFFFFF" opacity="1.000000" stroke="none" 
	d="
M147.988693,112.000130 
	C147.160019,111.936874 146.331360,111.873619 145.171570,111.525970 
	C142.700272,110.947166 140.505417,110.198860 138.430725,110.448608 
	C133.421295,111.051613 128.488113,112.263107 123.487595,112.970535 
	C114.836670,114.194374 106.119034,114.983307 97.500359,116.389610 
	C85.357002,118.371048 73.290001,120.817635 61.158146,122.875534 
	C59.535252,123.150826 57.724342,122.317734 56.260765,121.716354 
	C60.347912,119.957947 64.174797,118.481102 68.000839,117.002274 
	C68.000000,117.000290 68.000000,117.000000 68.445877,117.000870 
	C72.927635,116.667313 76.963509,116.332893 81.439789,115.999062 
	C85.441238,115.633980 89.574265,117.200592 92.468323,113.002945 
	C108.366722,114.034538 122.829445,107.993462 137.957855,106.741905 
	C139.041977,106.652229 139.993256,104.956627 141.450150,104.006805 
	C143.387436,103.971039 144.880875,103.936188 146.374298,103.901337 
	C146.594131,104.730545 146.813965,105.559761 147.099274,107.043991 
	C147.734604,108.851860 148.304474,110.004707 148.695786,111.261520 
	C148.310028,111.551216 148.133850,111.762764 147.988693,112.000130 
z"/>
<path fill="#FFFFFF" opacity="1.000000" stroke="none" 
	d="
M63.998985,137.006104 
	C62.841072,138.216751 61.683155,139.427383 60.265388,140.818176 
	C58.753780,138.547440 57.502026,136.096558 56.115936,133.330399 
	C56.429638,133.008118 56.877678,133.001099 57.949440,133.116486 
	C59.715500,132.825256 60.857841,132.411591 62.000183,131.997925 
	C62.749161,131.997482 63.498138,131.997055 65.084694,131.998138 
	C67.881035,132.000168 69.919373,132.348694 71.780724,131.923126 
	C74.913086,131.206970 77.933037,129.999161 81.000282,128.998169 
	C81.444237,128.998062 81.888191,128.997940 83.110229,128.999084 
	C104.925743,125.997307 125.963173,122.994270 147.000595,119.991241 
	C147.000595,119.991234 147.440689,119.989601 147.853119,120.249329 
	C149.146835,121.665932 150.028122,122.822807 150.909424,123.979675 
	C149.832184,124.301003 148.754944,124.622337 147.052979,124.679436 
	C132.578995,126.129349 118.614052,127.214394 104.913017,129.734344 
	C91.177155,132.260696 77.549919,134.654999 63.412498,133.862183 
	C63.584866,134.786179 63.791927,135.896133 63.998985,137.006104 
z"/>
<path fill="#E0F2FC" opacity="1.000000" stroke="none" 
	d="
M72.449951,173.952591 
	C75.747650,172.954544 79.472725,171.744781 83.291458,171.048965 
	C93.654907,169.160645 104.071136,167.562714 114.438400,165.694122 
	C118.082222,165.037354 121.644585,163.928635 125.644073,163.021698 
	C128.211777,170.130798 125.548851,173.795715 117.722801,173.946503 
	C108.765373,174.119110 99.802124,173.991287 90.841400,173.989761 
	C84.867622,173.988739 78.893837,173.980377 72.449951,173.952591 
z"/>





<path fill="#FFFFFF" opacity="1.000000" stroke="none" 
	d="
M146.273911,103.547623 
	C144.880875,103.936188 143.387436,103.971039 141.026337,104.013596 
	C132.107742,104.348961 124.056816,104.676613 115.670944,105.002884 
	C114.889336,104.999977 114.442688,104.998459 113.996033,104.996948 
	C115.613655,104.321472 117.179497,103.446991 118.859154,103.009888 
	C122.986031,101.935959 127.136314,100.890823 131.336166,100.185295 
	C133.325180,99.851158 135.449280,100.321220 137.840698,100.443771 
	C137.868576,99.984352 137.936340,98.868011 138.006012,97.380417 
	C139.230408,97.529022 140.452881,98.048889 141.096359,98.322533 
	C142.546555,97.033409 144.106033,95.647156 146.038452,94.203423 
	C143.849319,97.096672 144.186417,100.123604 146.273911,103.547623 
z"/>












<path fill="#FFFFFF" opacity="1.000000" stroke="none" 
	d="
M41.464268,115.210365 
	C41.945702,115.439354 42.447567,115.942055 42.945190,116.736916 
	C42.455536,116.514076 41.970119,115.999077 41.464268,115.210365 
z"/>
<path fill="#FFFFFF" opacity="1.000000" stroke="none" 
	d="
M51.975945,126.970169 
	C51.770283,126.993927 51.564617,127.017685 51.057510,127.122177 
	C50.240166,126.984489 49.724266,126.766068 49.110466,126.266731 
	C49.012566,125.985825 49.047916,125.951958 49.377525,125.971672 
	C50.463406,126.317642 51.219673,126.643906 51.975945,126.970169 
z"/>
<path fill="#FFFFFF" opacity="1.000000" stroke="none" 
	d="
M147.246246,93.728233 
	C147.203934,93.304375 147.438171,92.805550 147.955078,92.237732 
	C147.999420,92.663582 147.761093,93.158424 147.246246,93.728233 
z"/>
<path fill="#FFFFFF" opacity="1.000000" stroke="none" 
	d="
M178.904755,164.362000 
	C179.228653,164.494339 179.598999,164.918518 180.000885,165.640533 
	C179.671997,165.510193 179.311600,165.082016 178.904755,164.362000 
z"/>
<path fill="#FFFFFF" opacity="1.000000" stroke="none" 
	d="
M48.994301,126.002136 
	C48.588078,125.626709 48.200119,125.234985 47.720345,124.574646 
	C47.628525,124.306046 47.830002,124.143814 48.170704,124.068123 
	C48.511406,123.992432 48.998375,123.999695 48.999817,124.325325 
	C49.016811,125.084625 49.032364,125.518288 49.047916,125.951958 
	C49.047916,125.951958 49.012566,125.985825 48.994301,126.002136 
z"/>
<path fill="#FFFFFF" opacity="1.000000" stroke="none" 
	d="
M166.165344,140.080750 
	C166.391312,140.029938 166.674469,140.238312 166.993439,140.717377 
	C166.760361,140.772018 166.491455,140.555969 166.165344,140.080750 
z"/>
<path fill="#FFFFFF" opacity="1.000000" stroke="none" 
	d="
M209.087448,139.687195 
	C208.899628,139.768097 208.593430,139.573425 208.158493,139.134811 
	C208.342850,139.064453 208.655960,139.238037 209.087448,139.687195 
z"/>
<path fill="#FFFFFF" opacity="1.000000" stroke="none" 
	d="
M53.718491,40.043625 
	C53.907749,40.315056 53.752251,40.555588 53.225784,40.719837 
	C53.094219,40.462044 53.267193,40.251770 53.718491,40.043625 
z"/>
<path fill="#FFFFFF" opacity="1.000000" stroke="none" 
	d="
M159.173859,129.074707 
	C159.402969,129.033340 159.678391,129.248138 159.966614,129.735428 
	C159.726334,129.782242 159.473267,129.556549 159.173859,129.074707 
z"/>
<path fill="#FFFFFF" opacity="1.000000" stroke="none" 
	d="
M196.999100,48.811401 
	C196.938843,48.579830 197.164764,48.291492 197.657593,47.913383 
	C197.711411,48.133949 197.498352,48.444290 196.999100,48.811401 
z"/>
<path fill="#FFFFFF" opacity="1.000000" stroke="none" 
	d="
M148.423950,92.069168 
	C148.297562,91.871651 148.405426,91.566322 148.727844,91.132477 
	C148.847672,91.323090 148.752945,91.642220 148.423950,92.069168 
z"/>
<path fill="#FFFFFF" opacity="1.000000" stroke="none" 
	d="
M37.673843,57.078812 
	C37.881210,57.320702 37.718105,57.592358 37.222870,57.937199 
	C37.172478,57.796322 37.310020,57.495716 37.673843,57.078812 
z"/>
<path fill="#FFFFFF" opacity="1.000000" stroke="none" 
	d="
M129.962708,73.632767 
	C127.955734,74.730019 125.964493,75.830620 123.856659,76.142044 
	C107.763237,78.519737 91.637604,80.678818 75.541222,83.037209 
	C64.135658,84.708321 52.741280,86.475883 41.385227,88.449654 
	C38.761963,88.905594 36.315655,90.379669 33.270344,91.591125 
	C33.180275,89.943451 33.094566,88.375465 33.018745,86.400612 
	C47.941227,84.327599 62.853752,82.660820 77.766647,80.997429 
	C78.426781,80.923798 79.499474,81.119659 79.692253,80.789017 
	C84.005623,73.390862 91.314705,78.524963 97.050438,76.764618 
	C105.917404,74.043282 115.367523,73.280952 124.427231,71.094826 
	C127.373253,70.383942 129.143173,69.788445 129.962708,73.632767 
z"/>


<path fill="#FFFFFF" opacity="1.000000" stroke="none" 
	d="
M40.470375,105.001495 
	C41.244175,103.967079 42.360939,102.277931 43.750206,102.011917 
	C50.048466,100.805908 56.407234,99.869919 62.774155,99.077072 
	C82.207542,96.657135 101.662643,94.410225 121.089035,91.936821 
	C124.483589,91.504623 127.753456,90.164146 131.132629,89.510452 
	C132.852005,89.177856 134.686371,89.439621 136.734955,89.719215 
	C135.827133,90.981056 134.750381,92.641243 133.463715,92.824036 
	C122.571960,94.371483 111.614120,95.460564 100.731331,97.062347 
	C90.213394,98.610428 79.451698,99.596283 69.369141,102.692177 
	C59.820084,105.624252 50.417110,104.476288 40.470375,105.001495 
z"/>
<path fill="#FFFFFF" opacity="1.000000" stroke="none" 
	d="
M47.003609,118.995758 
	C46.740459,118.505554 46.477310,118.015343 46.107399,117.267868 
	C46.000641,116.019257 46.000641,115.027901 46.000641,113.850494 
	C48.058353,113.564995 50.007938,112.835625 51.791019,113.126595 
	C59.484371,114.382042 66.290405,110.541260 73.590538,109.663887 
	C77.519066,109.191742 81.446709,108.638519 85.391632,108.391388 
	C94.686607,107.809097 103.489120,103.253319 113.528595,104.997131 
	C114.442688,104.998459 114.889336,104.999977 115.603424,105.365616 
	C114.470924,106.456955 113.140656,107.576653 111.658325,107.839798 
	C106.674255,108.724594 101.604202,109.132690 96.628693,110.055557 
	C92.705315,110.783264 88.872849,112.001106 84.600197,113.001022 
	C83.134407,113.001579 82.068428,113.002357 80.583939,113.002151 
	C76.110283,114.334114 72.055138,115.667053 68.000000,117.000000 
	C68.000000,117.000000 68.000000,117.000290 67.625717,117.000214 
	C66.501259,116.999367 65.751083,116.998581 64.944321,116.659409 
	C62.591087,116.879913 60.294426,117.438820 57.598026,117.997932 
	C56.132320,117.998451 55.066345,117.998764 53.766350,117.729202 
	C51.356083,117.971474 49.179844,118.483620 47.003609,118.995758 
z"/>
<path fill="#FFFFFF" opacity="1.000000" stroke="none" 
	d="
M49.377525,125.971672 
	C49.032364,125.518288 49.016811,125.084625 49.109314,124.105606 
	C49.418098,123.286423 49.679985,123.097229 50.390388,122.994095 
	C52.518665,122.662979 54.259583,122.330444 56.000500,121.997910 
	C57.724342,122.317734 59.535252,123.150826 61.158146,122.875534 
	C73.290001,120.817635 85.357002,118.371048 97.500359,116.389610 
	C106.119034,114.983307 114.836670,114.194374 123.487595,112.970535 
	C128.488113,112.263107 133.421295,111.051613 138.430725,110.448608 
	C140.505417,110.198860 142.700272,110.947166 144.920654,111.620316 
	C134.953720,115.832520 124.477753,117.361755 113.806839,118.076530 
	C110.959625,118.267242 108.178535,119.407104 105.360176,120.082375 
	C103.945534,120.421318 102.487968,121.050758 101.096550,120.943359 
	C88.939934,120.005043 77.435364,124.222610 65.542435,125.325668 
	C61.294781,125.719635 57.076481,126.430092 52.410362,126.983139 
	C51.219673,126.643906 50.463406,126.317642 49.377525,125.971672 
z"/>
<path fill="#FFFFFF" opacity="1.000000" stroke="none" 
	d="
M146.857117,119.671143 
	C125.963173,122.994270 104.925743,125.997307 83.443199,128.998947 
	C86.306137,127.666267 89.559341,125.391441 92.933395,125.195282 
	C100.534058,124.753387 108.106773,124.836273 115.079445,121.166481 
	C115.217964,121.093575 115.401962,121.103531 115.565735,121.082626 
	C125.122246,119.862778 134.673370,118.594749 144.246216,117.520180 
	C144.990799,117.436607 145.887573,118.708923 146.857117,119.671143 
z"/>
<path fill="#FFFFFF" opacity="1.000000" stroke="none" 
	d="
M80.944580,128.658020 
	C77.933037,129.999161 74.913086,131.206970 71.780724,131.923126 
	C69.919373,132.348694 67.881035,132.000168 65.459183,131.997696 
	C65.309883,131.255524 65.548309,129.916550 65.948921,129.866135 
	C70.915192,129.241074 75.905075,128.803635 80.944580,128.658020 
z"/>
<path fill="#FFFFFF" opacity="1.000000" stroke="none" 
	d="
M61.778477,131.733307 
	C60.857841,132.411591 59.715500,132.825256 58.285446,133.116089 
	C59.184086,132.485092 60.370426,131.976883 61.778477,131.733307 
z"/>
<path fill="#FFFFFF" opacity="1.000000" stroke="none" 
	d="
M64.079880,137.385406 
	C63.791927,135.896133 63.584866,134.786179 63.412498,133.862183 
	C77.549919,134.654999 91.177155,132.260696 104.913017,129.734344 
	C118.614052,127.214394 132.578995,126.129349 146.714417,124.709122 
	C143.321640,125.989861 139.695236,127.306953 135.953995,127.902237 
	C124.241890,129.765778 112.469101,131.248489 100.758759,133.122116 
	C97.391670,133.660843 94.214478,135.435501 90.846848,135.910095 
	C85.864532,136.612274 80.781418,136.568802 75.759460,137.038025 
	C74.157829,137.187668 72.627922,138.298798 71.040718,138.362793 
	C68.759155,138.454803 66.455177,137.991150 64.079880,137.385406 
z"/>
<path fill="#FFFFFF" opacity="1.000000" stroke="none" 
	d="
M85.000000,113.001259 
	C88.872849,112.001106 92.705315,110.783264 96.628693,110.055557 
	C101.604202,109.132690 106.674255,108.724594 111.658325,107.839798 
	C113.140656,107.576653 114.470924,106.456955 115.938377,105.367004 
	C124.056816,104.676613 132.107742,104.348961 140.582489,104.014511 
	C139.993256,104.956627 139.041977,106.652229 137.957855,106.741905 
	C122.829445,107.993462 108.366722,114.034538 92.084930,113.008011 
	C89.156273,113.009628 87.078133,113.005440 85.000000,113.001259 
z"/>
<path fill="#FFFFFF" opacity="1.000000" stroke="none" 
	d="
M56.260765,121.716347 
	C54.259583,122.330444 52.518665,122.662979 50.389713,122.661499 
	C50.000866,121.883781 50.000050,121.440056 50.055824,120.654999 
	C51.408398,119.542137 52.704388,118.770615 54.000374,117.999084 
	C55.066345,117.998764 56.132320,117.998451 58.016731,117.998978 
	C60.890415,117.665817 62.945660,117.331810 65.000900,116.997803 
	C65.751083,116.998581 66.501259,116.999367 67.626564,117.002205 
	C64.174797,118.481102 60.347912,119.957947 56.260765,121.716347 
z"/>
<path fill="#FFFFFF" opacity="1.000000" stroke="none" 
	d="
M68.445877,117.000862 
	C72.055138,115.667053 76.110283,114.334114 80.583252,113.376526 
	C81.000511,114.500740 80.999954,115.249611 80.999390,115.998474 
	C76.963509,116.332893 72.927635,116.667313 68.445877,117.000862 
z"/>
<path fill="#FFFFFF" opacity="1.000000" stroke="none" 
	d="
M81.439796,115.999054 
	C80.999954,115.249611 81.000511,114.500740 81.001755,113.377502 
	C82.068428,113.002357 83.134407,113.001579 84.600197,113.001022 
	C87.078133,113.005440 89.156273,113.009628 91.617798,113.008736 
	C89.574265,117.200592 85.441238,115.633980 81.439796,115.999054 
z"/>



<path fill="#FFFFFF" opacity="1.000000" stroke="none" 
	d="
M190.003647,152.631088 
	C189.843796,152.902969 189.680191,152.956360 189.260223,152.980377 
	C189.113129,152.640762 189.301407,152.389755 189.779831,152.086853 
	C189.990967,151.975677 189.999893,152.412613 190.003647,152.631088 
z"/>

<path fill="#FFFFFF" opacity="1.000000" stroke="none" 
	d="
M196.696609,134.872787 
	C194.950562,135.668991 192.899292,136.335510 190.423645,137.000397 
	C192.129974,136.246887 194.260681,135.494995 196.696609,134.872787 
z"/>
<path fill="#FFFFFF" opacity="1.000000" stroke="none" 
	d="
M171.999359,153.999084 
	C171.906586,154.034622 171.814453,154.071075 171.862030,154.054382 
	C172.001740,154.001251 172.000000,154.000000 171.999359,153.999084 
z"/>
<path fill="#FFFFFF" opacity="1.000000" stroke="none" 
	d="
M53.766350,117.729210 
	C52.704388,118.770615 51.408398,119.542137 49.736969,120.631332 
	C48.575352,120.632278 47.789173,120.315559 47.002995,119.998840 
	C47.002869,119.831688 47.002739,119.664528 47.003113,119.246559 
	C49.179844,118.483620 51.356083,117.971474 53.766350,117.729210 
z"/>
<path fill="#FFFFFF" opacity="1.000000" stroke="none" 
	d="
M47.033859,120.342926 
	C47.789173,120.315559 48.575352,120.632278 49.680382,120.972672 
	C50.000050,121.440056 50.000866,121.883781 50.002354,122.660095 
	C49.679985,123.097229 49.418098,123.286423 49.107872,123.779984 
	C48.998375,123.999695 48.511406,123.992432 48.268280,123.983223 
	C47.705009,122.878349 47.384865,121.782677 47.033859,120.342926 
z"/>
<path fill="#FFFFFF" opacity="1.000000" stroke="none" 
	d="
M64.944321,116.659409 
	C62.945660,117.331810 60.890415,117.665817 58.416466,117.998779 
	C60.294426,117.438820 62.591087,116.879913 64.944321,116.659409 
z"/>
</svg>