<svg version="1.1" id="Layer_1" xmlns="http://www.w3.org/2000/svg" xmlns:xlink="http://www.w3.org/1999/xlink" x="0px" y="0px"
	 width="100%" viewBox="0 0 225 225" enable-background="new 0 0 225 225" xml:space="preserve">
<path fill="#FFFFFF" opacity="1.000000" stroke="none" 
	d="
M135.221527,186.128769 
	C120.913155,192.186157 107.222954,192.187195 92.930588,186.616318 
	C82.605721,182.591919 71.540115,180.447723 60.767677,177.605988 
	C58.108795,176.904587 56.639412,176.087616 56.364246,172.817871 
	C53.321060,136.656754 50.068794,100.513168 46.842518,64.367569 
	C45.984898,54.759239 45.022831,45.160229 44.073292,35.184734 
	C90.238335,35.184734 136.266434,35.184734 182.831741,35.184734 
	C182.210785,42.339714 181.602875,49.547737 180.957047,56.752365 
	C177.509079,95.216736 173.995087,133.675400 170.693481,172.152298 
	C170.395859,175.620819 169.180450,176.926498 165.926956,177.748779 
	C155.774445,180.314713 145.715591,183.251297 135.221527,186.128769 
M118.499451,81.000198 
	C124.926086,81.000198 131.352722,81.000198 137.927917,81.000198 
	C137.301727,87.295883 136.743500,92.908188 136.132507,99.050995 
	C114.955658,99.050995 94.069122,99.050995 73.041611,99.050995 
	C73.599792,105.065712 74.104149,110.500465 74.643555,116.312912 
	C94.746925,116.312912 114.517700,116.312912 134.705429,116.312912 
	C134.062668,124.016670 133.457367,131.271378 132.882736,138.158478 
	C119.891609,144.428177 107.126984,144.699310 94.137314,138.124710 
	C93.742653,134.200211 93.296852,129.767212 92.836876,125.193268 
	C86.866669,125.193268 81.162773,125.193268 75.388206,125.193268 
	C76.049164,133.362946 76.580933,141.178253 77.409340,148.962006 
	C77.548737,150.271759 78.725517,152.213837 79.835571,152.567032 
	C98.953979,158.650085 118.059860,165.827850 138.048050,155.516266 
	C139.781601,154.621948 141.830185,154.206909 143.784393,153.898712 
	C148.019684,153.230743 149.583618,151.127930 149.903214,146.634613 
	C151.238495,127.860924 153.091339,109.124168 154.738388,90.372459 
	C155.505173,81.642632 156.235245,72.909569 156.998611,63.983109 
	C127.725708,63.983109 99.011864,63.983109 69.865425,63.983109 
	C70.378258,69.751236 70.858139,75.148735 71.378380,81.000198 
	C86.927330,81.000198 102.213531,81.000198 118.499451,81.000198 
z"/>
</svg>