<svg version="1.1" id="Layer_1" xmlns="http://www.w3.org/2000/svg" xmlns:xlink="http://www.w3.org/1999/xlink" x="0px" y="0px"
	 width="100%" viewBox="0 0 208 243" enable-background="new 0 0 208 243" xml:space="preserve">
<path fill="#FFFFFF" opacity="1.000000" stroke="none" 
	d="
M1.000000,13.000000 
	C1.000000,9.008085 1.000000,5.016171 1.000002,1.025703 
	C70.333336,1.027150 139.666672,1.027150 209.000000,1.027150 
	C209.000000,4.380897 209.000000,7.707492 208.615021,11.647085 
	C207.821671,14.007393 207.183960,15.736268 207.041794,17.504976 
	C206.041412,29.950439 205.261536,42.414295 204.191620,54.853382 
	C199.596802,108.273682 194.884995,161.683990 190.380768,215.111832 
	C190.095169,218.499695 189.105026,219.981964 185.802597,220.878448 
	C171.679291,224.712494 157.621613,228.791763 143.567291,232.875534 
	C131.026230,236.519608 118.521034,240.287033 106.000000,244.000000 
	C105.250000,244.000000 104.500000,244.000000 103.186493,243.682678 
	C76.564545,235.871964 50.520481,228.327789 24.428898,220.951675 
	C21.282814,220.062286 19.793766,218.912186 19.647205,215.330902 
	C19.327547,207.519745 18.375725,199.734985 17.702778,191.937668 
	C12.704807,134.027069 7.723043,76.115051 2.664494,18.209742 
	C2.509734,16.438211 1.572455,14.735041 1.000000,13.000000 
M115.499596,127.431389 
	C122.587502,127.431389 129.675415,127.431389 137.171661,127.431389 
	C136.139603,138.807266 135.252075,149.565506 134.050339,160.288513 
	C133.933441,161.331650 132.013306,162.484634 130.699173,163.034225 
	C114.229004,169.922531 97.702461,170.790070 81.157120,163.222031 
	C80.715218,163.019897 80.185020,162.999985 79.691643,162.922974 
	C77.007072,162.503891 75.899895,161.117096 75.772934,158.232971 
	C75.511711,152.298676 74.771065,146.385468 74.237747,140.572937 
	C65.218819,140.572937 56.798523,140.572937 48.038467,140.572937 
	C49.227814,153.846481 50.306637,166.781143 51.664162,179.686493 
	C51.803619,181.012222 53.389938,182.901001 54.674755,183.282349 
	C70.623863,188.016144 86.629944,192.560608 102.659439,197.016846 
	C104.280830,197.467606 106.252380,197.396683 107.888206,196.943100 
	C123.760971,192.542053 139.622696,188.094223 155.399719,183.366592 
	C156.852676,182.931213 158.555161,180.546341 158.700729,178.936417 
	C162.540634,136.471420 166.195847,93.989685 169.853668,51.508320 
	C170.003586,49.767235 169.872803,48.001976 169.872803,46.327385 
	C126.435562,46.327385 83.380722,46.327385 40.011700,46.327385 
	C40.756172,55.261475 41.468464,63.809319 42.217922,72.803253 
	C75.663383,72.803253 108.571533,72.803253 141.841019,72.803253 
	C140.997421,82.197357 140.201340,91.062424 139.370667,100.312744 
	C117.425674,100.312744 96.002411,100.312744 74.118332,100.312744 
	C74.856834,109.513191 75.557381,118.240860 76.295074,127.431335 
	C89.238678,127.431335 101.869156,127.431335 115.499596,127.431389 
z"/>
</svg>