<?xml version="1.0" standalone="no"?>
<!DOCTYPE svg PUBLIC "-//W3C//DTD SVG 20010904//EN"
 "http://www.w3.org/TR/2001/REC-SVG-20010904/DTD/svg10.dtd">
<svg version="1.0" xmlns="http://www.w3.org/2000/svg"
 width="219.000000pt" height="230.000000pt" viewBox="0 0 219.000000 230.000000"
 preserveAspectRatio="xMidYMid meet">

<g transform="translate(0.000000,230.000000) scale(0.100000,-0.100000)"
fill="#FFFFFF" stroke="none">
<path fill="#FFFFFF" d="M79 2164 l-24 -26 -3 -321 c-2 -177 0 -377 3 -445 8 -141 17 -160 81
-169 36 -5 46 -1 75 25 l34 30 3 371 4 371 844 0 844 0 0 -850 0 -850 -377 0
c-377 0 -378 0 -406 -23 -42 -33 -48 -93 -12 -135 l27 -32 453 0 454 0 28 24
28 24 0 990 0 990 -24 26 -24 26 -992 0 -992 0 -24 -26z"/>
<path fill="#FFFFFF" d="M1204 1750 c-32 -13 -54 -50 -54 -90 0 -70 48 -100 159 -100 l55 0
-206 -207 c-112 -115 -213 -220 -222 -235 -36 -56 17 -138 90 -138 32 0 53 18
253 215 120 118 221 215 224 215 4 0 7 -33 7 -74 0 -65 3 -79 24 -103 20 -23
32 -28 71 -28 39 0 51 5 71 28 24 28 24 30 24 247 0 217 0 219 -24 247 l-24
28 -214 2 c-117 1 -223 -2 -234 -7z"/>
<path fill="#FFFFFF" d="M87 956 c-36 -33 -39 -79 -35 -465 l3 -333 28 -24 28 -24 379 0 379
0 28 24 28 24 0 369 c0 202 -3 380 -8 395 -15 56 -31 58 -435 58 l-369 0 -26
-24z m641 -413 l2 -243 -240 0 -240 0 0 238 c0 131 3 242 7 246 4 3 110 5 237
4 l231 -3 3 -242z"/>
</g>
</svg>
