<?xml version="1.0" standalone="no"?>
<!DOCTYPE svg PUBLIC "-//W3C//DTD SVG 20010904//EN"
 "http://www.w3.org/TR/2001/REC-SVG-20010904/DTD/svg10.dtd">
<svg version="1.0" xmlns="http://www.w3.org/2000/svg"
 width="225.000000pt" height="225.000000pt" viewBox="0 0 225.000000 225.000000"
 preserveAspectRatio="xMidYMid meet">

<g transform="translate(0.000000,225.000000) scale(0.100000,-0.100000)"
fill="#000000" stroke="none">
<path fill="#FFFFFF" d="M366 2064 c-21 -21 -20 -27 9 -62 33 -40 32 -51 -11 -87 -31 -26 -34
-33 -26 -55 15 -40 -2 -68 -47 -80 -35 -9 -61 -33 -61 -55 0 -3 10 -10 23 -15
16 -6 18 -9 5 -9 -27 -1 -86 -58 -98 -96 -9 -28 -7 -42 14 -94 13 -33 41 -124
60 -202 120 -468 402 -815 760 -934 169 -57 429 -84 623 -66 169 16 192 20
247 37 28 10 64 14 87 11 21 -3 41 -1 44 3 3 5 31 14 63 20 31 7 65 16 75 21
20 11 23 44 5 56 -12 7 -91 13 -155 12 -148 -2 -213 1 -213 11 0 5 11 26 25
46 27 40 25 54 -7 54 -28 0 -80 -39 -72 -53 4 -7 3 -9 -1 -4 -5 4 -20 -4 -35
-18 l-26 -25 -75 19 c-145 37 -237 82 -357 172 -58 44 -185 192 -228 266 -70
118 -104 266 -125 545 -9 126 -9 161 1 173 16 19 46 19 100 0 54 -19 90 -19
90 -1 0 22 -56 60 -125 85 -94 35 -199 89 -212 110 -7 12 -29 21 -60 26 -64 9
-81 20 -85 52 -3 26 -6 28 -58 31 -30 2 -58 8 -61 14 -4 6 -5 27 -2 46 5 27 2
38 -12 48 -25 19 -60 18 -79 -2z m72 -15 c2 -12 -6 -18 -32 -21 -37 -4 -46 8
-24 30 17 17 52 11 56 -9z m82 -119 c0 -5 -9 -10 -21 -10 -11 0 -17 5 -14 10
3 6 13 10 21 10 8 0 14 -4 14 -10z m55 -70 c1 0 0 -11 -3 -25 -2 -14 -11 -25
-18 -25 -21 0 -54 37 -54 60 0 19 2 20 36 5 20 -8 38 -15 39 -15z m-75 -29 c0
-8 -90 -21 -99 -14 -2 1 7 7 20 12 31 12 79 14 79 2z m147 -23 c-2 -7 0 -21 5
-30 5 -11 5 -18 -1 -18 -5 0 -12 6 -14 13 -3 6 -6 2 -6 -11 -1 -36 -30 -39
-57 -6 -15 19 -23 24 -24 14 0 -12 -14 -15 -62 -15 -35 0 -76 -4 -93 -9 -16
-5 -27 -6 -24 -2 7 7 242 73 267 75 8 1 12 -5 9 -11z m77 -83 c-5 -21 -3 -25
15 -25 23 0 28 19 9 38 -10 10 3 12 67 10 91 -3 106 -18 62 -62 -29 -29 -70
-42 -202 -62 -108 -16 -120 -19 -210 -58 -44 -18 -61 -22 -63 -12 -4 17 -62 8
-62 -10 0 -19 -30 -18 -59 2 -17 12 -21 22 -16 41 5 22 4 23 -15 13 -18 -10
-23 -20 -33 -75 -3 -18 -5 -17 -17 8 -24 49 4 83 85 103 20 5 25 2 25 -13 0
-11 11 -25 25 -31 32 -15 55 -15 55 -2 0 6 -5 10 -11 10 -6 0 -8 7 -5 15 3 9
-1 18 -9 21 -23 9 -9 21 32 28 21 4 79 19 128 33 50 15 115 32 145 39 30 6 56
12 58 13 1 1 0 -10 -4 -24z m-414 -5 c-8 -5 -19 -10 -25 -10 -5 0 -3 5 5 10 8
5 20 10 25 10 6 0 3 -5 -5 -10z m727 -45 c8 -23 0 -25 -21 -4 -18 17 -18 19
-2 19 9 0 19 -7 23 -15z m-188 -135 c2 -41 4 -105 5 -141 2 -36 6 -71 10 -77
4 -7 4 -21 1 -33 -4 -11 -1 -27 6 -36 11 -12 11 -17 -2 -27 -8 -6 -18 -20 -22
-31 -7 -20 -7 -20 8 -1 8 11 17 18 19 15 2 -2 14 -41 25 -86 12 -45 26 -94 31
-109 7 -18 7 -30 0 -39 -11 -14 16 -48 56 -71 11 -6 37 -38 60 -72 22 -34 51
-73 64 -87 13 -14 25 -33 26 -41 6 -37 89 -99 166 -124 21 -6 51 -24 68 -40
32 -30 93 -56 109 -46 5 3 11 0 14 -8 3 -7 28 -19 56 -26 52 -12 63 -23 35
-34 -19 -7 -114 16 -179 45 -47 21 -97 22 -140 4 -18 -8 -19 -7 -5 11 9 12 4
10 -13 -6 l-28 -24 -25 27 c-14 15 -29 25 -34 22 -19 -12 -49 14 -44 39 4 22
0 24 -49 30 -56 7 -64 11 -86 39 -12 15 -11 17 17 17 22 0 29 -4 28 -17 -1
-14 8 -19 39 -21 l40 -3 -45 47 c-34 35 -76 61 -167 105 -68 32 -123 61 -123
64 0 10 44 1 58 -13 8 -7 18 -9 24 -6 7 5 8 2 3 -5 -5 -9 0 -12 16 -9 18 2 23
8 21 23 -5 27 -31 55 -51 55 -9 0 -32 13 -51 30 l-35 29 28 1 c22 0 27 5 27
23 0 13 -12 34 -26 48 l-25 24 10 -28 c14 -36 1 -34 -24 5 -23 36 -45 47 -45
24 0 -9 -4 -16 -10 -16 -5 0 -10 5 -10 11 0 6 -6 9 -14 6 -19 -8 -36 12 -36
42 0 14 -13 38 -30 56 l-31 32 31 -5 c36 -5 38 7 6 45 -23 27 -25 27 -43 10
-28 -24 -33 -22 -33 19 0 22 -4 33 -11 29 -6 -4 -7 -19 -4 -36 5 -24 3 -29
-11 -29 -14 0 -11 -7 15 -34 26 -27 29 -34 17 -39 -25 -10 -19 -24 15 -36 42
-15 42 -15 35 15 -4 15 -3 23 2 20 5 -3 12 -20 16 -38 3 -18 16 -42 28 -55 36
-38 10 -39 -60 -3 -55 29 -67 40 -68 60 -1 36 -30 99 -49 106 -10 4 -13 13
-10 24 4 12 -3 25 -19 38 l-25 19 25 24 c23 22 25 22 42 6 14 -15 15 -19 3
-27 -12 -7 -13 -13 -3 -35 15 -32 32 -24 32 14 0 38 -34 79 -68 83 -16 2 -28
10 -30 21 -4 22 42 67 69 67 28 0 33 23 14 59 -17 34 -12 56 12 47 18 -7 83
19 83 33 0 6 11 11 24 11 13 0 26 7 29 14 5 12 13 13 39 5 43 -12 47 -11 24 6
-17 13 -15 14 20 24 125 32 128 30 133 -59z m-579 -20 c0 -5 -5 -10 -11 -10
-5 0 -7 5 -4 10 3 6 8 10 11 10 2 0 4 -4 4 -10z m171 -40 c25 0 25 -27 -1 -35
-27 -9 -50 6 -24 16 16 6 16 8 2 8 -9 1 -20 6 -24 13 -5 8 -2 9 10 5 10 -4 26
-7 37 -7z m-81 -30 c0 -5 -7 -10 -15 -10 -8 0 -15 5 -15 10 0 6 7 10 15 10 8
0 15 -4 15 -10z m-6 -76 c9 -3 14 -10 11 -15 -7 -10 -35 0 -35 12 0 11 3 11
24 3z m-70 -39 c3 -8 1 -15 -4 -15 -6 0 -10 7 -10 15 0 8 2 15 4 15 2 0 6 -7
10 -15z m68 -12 c-6 -3 -10 -9 -6 -14 3 -5 0 -9 -5 -9 -6 0 -9 10 -7 23 3 12
5 24 5 27 1 2 7 -2 14 -9 10 -11 9 -14 -1 -18z m-36 -75 c9 -18 18 -44 19 -58
2 -32 25 -102 36 -114 5 -6 9 -15 9 -20 -1 -21 -33 30 -71 112 -44 95 -45 100
-23 81 15 -12 16 -11 10 9 -11 32 1 27 20 -10z m131 -94 c-3 -3 -12 -4 -19 -1
-8 3 -5 6 6 6 11 1 17 -2 13 -5z m-75 -133 c11 -25 47 -81 80 -125 33 -43 68
-98 79 -122 10 -24 23 -44 29 -44 6 0 42 -30 79 -67 37 -38 81 -78 97 -90 35
-25 26 -40 -14 -24 -40 17 -166 142 -198 198 -16 27 -53 86 -85 133 -57 86
-81 129 -99 176 -17 45 11 15 32 -35z m143 -71 c3 -5 2 -10 -4 -10 -5 0 -13 5
-16 10 -3 6 -2 10 4 10 5 0 13 -4 16 -10z m230 0 c3 -5 1 -10 -4 -10 -6 0 -11
5 -11 10 0 6 2 10 4 10 3 0 8 -4 11 -10z m-45 -31 c0 -5 -7 -9 -16 -9 -14 0
-14 -3 -4 -15 8 -10 9 -15 2 -15 -6 0 0 -12 13 -26 24 -25 58 -84 50 -84 -9 0
-135 72 -135 77 0 3 8 2 17 -1 16 -6 16 -6 0 12 -9 10 -17 23 -17 29 0 6 -5
13 -12 15 -8 3 -5 11 8 24 16 17 25 19 57 11 20 -5 37 -13 37 -18z m-135 -9
c3 -6 -1 -7 -9 -4 -18 7 -21 14 -7 14 6 0 13 -4 16 -10z m132 -146 c-3 -3 -12
-4 -19 -1 -8 3 -5 6 6 6 11 1 17 -2 13 -5z m113 -14 c13 -9 13 -10 0 -10 -8 0
-22 5 -30 10 -13 9 -13 10 0 10 8 0 22 -5 30 -10z m-27 -39 c33 -13 27 -31 -9
-31 -30 0 -94 26 -94 38 0 22 36 20 103 -7z m80 -5 c41 -19 46 -26 18 -26 -11
0 -33 12 -48 26 -15 14 -23 24 -18 21 6 -2 27 -11 48 -21z m86 -2 c8 -3 11 -7
8 -10 -8 -8 -87 15 -87 26 0 5 14 5 33 -1 17 -6 38 -13 46 -15z m-43 -49 c18
-13 18 -14 -4 -8 -12 3 -25 9 -28 14 -8 14 10 11 32 -6z m10 -50 c15 -11 16
-14 3 -15 -8 0 -24 7 -35 15 -15 11 -16 14 -3 15 8 0 24 -7 35 -15z m69 -65
c3 -5 2 -10 -4 -10 -5 0 -13 5 -16 10 -3 6 -2 10 4 10 5 0 13 -4 16 -10z m115
-10 c0 -5 -4 -10 -10 -10 -5 0 -10 5 -10 10 0 6 5 10 10 10 6 0 10 -4 10 -10z
m-170 -77 c36 -17 67 -27 70 -22 3 5 14 -1 24 -12 12 -15 24 -19 42 -15 25 7
112 -11 129 -25 14 -14 -16 -11 -71 6 -65 20 -69 18 -14 -7 37 -16 82 -22 253
-31 220 -11 278 -27 100 -27 -137 0 -362 33 -456 67 -93 33 -196 85 -179 90 6
3 10 9 7 14 -7 10 0 7 95 -38z m438 -5 c-2 -17 -10 -23 -30 -23 -33 -1 -34 2
-11 27 23 25 45 23 41 -4z m442 -4 c52 -11 -6 -21 -85 -14 -70 5 -77 8 -55 18
23 10 79 9 140 -4z m-403 -11 c-9 -9 -19 -14 -23 -11 -10 10 6 28 24 28 15 0
15 -1 -1 -17z m676 0 c-13 -2 -35 -2 -50 0 -16 2 -5 4 22 4 28 0 40 -2 28 -4z
m-623 -7 c0 -3 -4 -8 -10 -11 -5 -3 -10 -1 -10 4 0 6 5 11 10 11 6 0 10 -2 10
-4z m-45 -16 c-3 -5 -11 -10 -16 -10 -6 0 -7 5 -4 10 3 6 11 10 16 10 6 0 7
-4 4 -10z m55 -10 c0 -5 -5 -10 -11 -10 -5 0 -7 5 -4 10 3 6 8 10 11 10 2 0 4
-4 4 -10z m70 4 c0 -2 -9 -8 -19 -13 -14 -8 -20 -7 -24 2 -3 7 5 13 19 13 13
1 24 0 24 -2z m80 -68 c0 -3 -4 -8 -10 -11 -5 -3 -10 -1 -10 4 0 6 5 11 10 11
6 0 10 -2 10 -4z"/>
<path fill="#FFFFFF" d="M785 1720 c-3 -6 1 -7 9 -4 18 7 21 14 7 14 -6 0 -13 -4 -16 -10z"/>
<path fill="#FFFFFF" d="M563 1690 c-13 -5 -23 -12 -23 -15 0 -4 5 -3 12 1 6 4 26 7 44 6 18
-1 36 3 39 8 8 12 -42 12 -72 0z"/>
<path fill="#FFFFFF" d="M475 1650 c-4 -6 -4 -10 -1 -10 2 0 11 -3 20 -6 9 -3 16 -2 16 4 0
14 -28 23 -35 12z"/>
<path fill="#FFFFFF" d="M437 1623 c-4 -3 5 -12 20 -20 30 -16 41 -10 23 12 -13 16 -32 20
-43 8z"/>
<path fill="#FFFFFF" d="M794 1505 c-3 -19 -3 -43 1 -52 6 -17 7 -17 21 1 8 11 14 27 13 35 0
12 -3 11 -10 -4 -7 -15 -8 -10 -4 18 7 47 -12 50 -21 2z"/>
<path fill="#FFFFFF" d="M570 1426 c0 -8 9 -20 19 -26 15 -8 19 -7 17 6 -3 22 -36 40 -36 20z"/>
<path fill="#FFFFFF" d="M543 1383 c-21 -8 -15 -22 18 -38 44 -23 58 -13 18 14 -32 22 -24 24
26 6 13 -4 12 -1 -5 9 -26 16 -37 18 -57 9z"/>
<path fill="#FFFFFF" d="M500 1354 c0 -8 32 -33 43 -34 5 0 5 4 2 10 -8 13 -45 33 -45 24z"/>
<path fill="#FFFFFF" d="M500 1320 c0 -7 -7 -10 -17 -6 -13 5 -11 0 6 -18 14 -15 28 -26 33
-26 14 0 9 37 -7 50 -12 10 -15 10 -15 0z"/>
<path fill="#FFFFFF" d="M760 1247 c0 -42 14 -77 31 -77 15 0 2 67 -17 94 -13 19 -14 18 -14
-17z"/>
<path fill="#FFFFFF" d="M630 1256 c0 -3 4 -16 10 -30 13 -34 5 -33 -14 2 -19 35 -20 12 -2
-33 10 -24 20 -33 35 -32 32 2 34 26 6 63 -24 31 -35 41 -35 30z"/>
<path fill="#FFFFFF" d="M901 1004 c0 -11 3 -14 6 -6 3 7 2 16 -1 19 -3 4 -6 -2 -5 -13z"/>
<path fill="#FFFFFF" d="M1040 774 c0 -7 9 -22 20 -35 10 -13 19 -19 20 -13 0 7 -9 22 -20 35
-10 13 -19 19 -20 13z"/>
<path fill="#FFFFFF" d="M840 475 c0 -7 61 -37 66 -33 2 3 -12 12 -31 21 -19 9 -35 15 -35 12z"/>
</g>
</svg>
