<svg version="1.1" id="Layer_1" xmlns="http://www.w3.org/2000/svg" xmlns:xlink="http://www.w3.org/1999/xlink" x="0px" y="0px"
	 width="100%" viewBox="0 0 225 225" enable-background="new 0 0 225 225" xml:space="preserve">

<path fill="#FFFFFF" opacity="1.000000" stroke="none" 
	d="
M135.666672,1.000000 
	C146.454330,18.720558 144.807114,33.671543 130.117432,48.315212 
	C123.656273,54.756123 116.698509,60.810444 109.381264,66.253990 
	C99.244522,73.795059 96.723717,83.150520 100.729057,94.686928 
	C103.391556,102.355629 106.224113,109.965309 108.984795,117.599876 
	C109.568535,119.214180 110.170761,120.821793 111.280556,123.832619 
	C108.786690,122.944389 107.458061,122.826675 106.629860,122.121361 
	C98.090576,114.849075 90.422722,106.827446 85.426064,96.601021 
	C80.262856,86.033714 80.041489,75.480515 87.437996,66.071014 
	C92.520035,59.605888 98.651871,53.885590 104.785034,48.354134 
	C109.204048,44.368656 114.364876,41.195435 119.253403,37.742863 
	C130.603928,29.726435 134.302582,18.435465 133.405960,5.113745 
	C133.332153,4.017227 133.600845,2.897658 133.855194,1.394400 
	C134.444443,1.000000 134.888901,1.000000 135.666672,1.000000 
z"/>
<path fill="#FFFFFF" opacity="1.000000" stroke="none" 
	d="
M99.468658,226.000000 
	C92.185623,225.003403 85.366646,224.037018 78.558556,222.999191 
	C74.290871,222.348648 70.023758,221.670639 65.790260,220.833572 
	C64.471069,220.572723 63.262718,219.751312 62.003624,219.186508 
	C62.036304,218.658157 62.068985,218.129807 62.101669,217.601440 
	C64.000389,217.371689 65.899017,216.943237 67.797844,216.942337 
	C91.769165,216.931000 115.744263,217.251587 139.710495,216.918610 
	C155.090073,216.704941 170.178589,214.261978 184.086517,207.064178 
	C186.583344,205.771973 188.799286,203.941376 191.279861,202.611038 
	C192.112122,202.164719 193.485870,202.222260 194.367233,202.608414 
	C194.749634,202.775955 194.936737,204.734344 194.490234,205.234406 
	C191.125015,209.003281 188.109329,213.429214 183.981949,216.101456 
	C175.113083,221.843536 164.566132,222.536301 154.372086,223.943314 
	C149.772430,224.578171 145.127396,224.884415 140.251480,225.669861 
	C126.645775,226.000000 113.291542,226.000000 99.468658,226.000000 
z"/>
<path fill="#FFFFFF" opacity="1.000000" stroke="none" 
	d="
M171.146484,197.247238 
	C174.908157,195.673386 180.446167,196.818375 179.677185,190.371643 
	C180.659683,190.260986 181.880508,189.721436 182.584244,190.112457 
	C185.994568,192.007492 186.946091,196.818420 184.028931,199.389252 
	C181.359299,201.741989 178.117142,203.733551 174.790955,205.003143 
	C160.063477,210.624542 144.555176,213.098373 128.971375,213.698273 
	C108.394264,214.490417 87.753326,214.365677 67.164726,213.771896 
	C58.299931,213.516235 49.469078,211.243256 40.685909,209.557892 
	C38.339008,209.107559 36.017452,207.729095 34.042473,206.286377 
	C28.197657,202.016739 28.467091,195.269073 35.271187,193.278122 
	C44.408028,190.604553 54.064137,189.684311 63.523918,188.178406 
	C64.238136,188.064713 65.164322,189.282562 65.991966,189.881454 
	C65.225082,190.584061 64.570541,191.655502 63.672932,191.928879 
	C58.210255,193.592636 52.692272,195.074799 47.341011,197.701218 
	C88.600868,206.996750 129.687363,206.297348 171.146484,197.247238 
z"/>
<path fill="#FFFFFF" opacity="1.000000" stroke="none" 
	d="
M148.950729,138.998108 
	C136.065186,144.602234 122.765289,146.581375 109.288383,147.466660 
	C93.472588,148.505585 77.664566,148.407425 62.105732,144.846313 
	C58.909645,144.114807 55.492859,143.048553 52.958862,141.113678 
	C50.729824,139.411652 48.345142,136.274765 48.352097,133.778046 
	C48.358154,131.603073 51.196945,128.381195 53.507942,127.481659 
	C58.712482,125.455849 64.312645,124.267181 69.852455,123.337746 
	C74.420944,122.571266 79.131966,122.552818 83.784698,122.467026 
	C84.842911,122.447502 85.921211,123.517532 86.990265,124.086060 
	C86.144745,124.922371 85.443085,126.168503 84.428947,126.524498 
	C79.892487,128.116943 75.255646,129.421036 70.683563,130.916458 
	C69.815506,131.200378 69.076660,131.879364 67.019150,133.159271 
	C72.366493,133.867874 76.398880,134.774963 80.451790,134.878387 
	C105.423698,135.515671 130.388809,135.822861 155.080307,130.920227 
	C156.238358,130.690292 157.603622,131.503967 158.872375,131.831619 
	C158.186050,132.858551 157.722031,134.230362 156.769531,134.844391 
	C154.401062,136.371246 151.809921,137.552673 148.950729,138.998108 
z"/>
<path fill="#FFFFFF" opacity="1.000000" stroke="none" 
	d="
M149.383179,56.356956 
	C143.653763,61.694626 137.835480,66.473106 132.830750,71.989662 
	C126.648033,78.804680 126.707024,83.060478 131.647308,90.795464 
	C132.362610,91.915413 133.085785,93.031693 133.844955,94.122070 
	C144.127731,108.891075 137.293365,122.644768 121.783318,132.255417 
	C122.054031,129.961472 121.872772,128.280533 122.472214,126.951797 
	C125.798363,119.578926 125.580322,112.992264 119.447990,106.943481 
	C117.263908,104.789162 115.528954,101.884148 114.401009,99.003815 
	C108.407104,83.697647 110.134354,75.360619 121.256645,67.032974 
	C130.982773,59.750671 142.227798,54.486801 152.876663,48.463581 
	C153.888153,47.891472 155.433548,48.263332 156.731079,48.196949 
	C156.939240,48.680111 157.147400,49.163277 157.355576,49.646439 
	C154.788773,51.806011 152.221985,53.965580 149.383179,56.356956 
z"/>
<path fill="#FFFFFF" opacity="1.000000" stroke="none" 
	d="
M121.983749,178.057587 
	C123.409134,177.866364 124.438271,177.850082 125.367790,177.537552 
	C133.312592,174.866287 140.276794,176.746262 146.487167,182.052002 
	C147.427032,182.854935 148.134949,183.929352 148.950150,184.878204 
	C148.000046,185.693954 147.181046,186.854630 146.079956,187.273163 
	C131.896927,192.664261 117.192101,194.752228 102.088776,193.531357 
	C95.987747,193.038208 89.927551,191.970596 83.873062,191.011154 
	C81.929649,190.703156 80.004715,190.048843 78.174896,189.299927 
	C73.880188,187.542130 69.615067,185.290421 70.133415,179.828476 
	C70.642403,174.465118 75.455864,173.639664 79.638344,172.494843 
	C83.151375,171.533295 85.172928,172.425354 84.307335,176.697037 
	C96.750481,179.149353 109.077362,180.249603 121.983749,178.057587 
z"/>
<path fill="#FFFFFF" opacity="1.000000" stroke="none" 
	d="
M122.649986,155.849243 
	C128.795883,154.724487 134.612152,152.445541 140.167175,152.964264 
	C144.312134,153.351318 148.119553,157.353256 152.077286,159.745407 
	C151.441376,160.717529 150.950974,162.393738 150.148407,162.559601 
	C125.051651,167.746490 99.916267,172.973679 74.309471,165.850677 
	C71.498230,165.068680 68.696663,163.647827 66.361908,161.895386 
	C62.650753,159.109833 62.705269,155.284225 66.682144,152.935318 
	C70.202377,150.856125 74.295982,149.747726 78.136459,148.210739 
	C78.509254,148.809341 78.882050,149.407944 79.254845,150.006546 
	C78.292473,151.306381 77.330109,152.606216 75.774307,154.707581 
	C91.427895,158.521881 106.814125,157.297089 122.649986,155.849243 
z"/>
<path fill="#FFFFFF" opacity="1.000000" stroke="none" 
	d="
M177.978455,130.916046 
	C172.492432,129.177704 167.350952,127.617867 161.959122,125.982086 
	C162.258850,125.220551 162.323685,124.466927 162.734161,124.100494 
	C169.867249,117.732880 185.937469,117.960678 191.662857,124.918854 
	C198.225464,132.894531 199.872452,144.246216 190.254807,153.093964 
	C182.313705,160.399384 172.415283,163.832581 162.256393,166.595520 
	C161.372467,166.835953 160.230728,166.128464 159.208740,165.861282 
	C159.731873,164.788223 159.996262,163.425674 160.820251,162.689270 
	C166.017792,158.044205 171.488770,153.695923 176.549088,148.910843 
	C178.666702,146.908417 180.473022,144.270676 181.579346,141.576248 
	C183.262085,137.477982 182.189728,133.725815 177.978455,130.916046 
z"/>
</svg>