<svg version="1.1" id="Layer_1" xmlns="http://www.w3.org/2000/svg" xmlns:xlink="http://www.w3.org/1999/xlink" x="0px" y="0px"
	 width="100%" viewBox="0 0 225 225" enable-background="new 0 0 225 225" xml:space="preserve">
<path fill="#FFFFFF" opacity="1.000000" stroke="none" 
	d="
M123.535355,1.000000 
	C125.816490,1.528727 127.634331,2.052844 129.449234,2.586953 
	C138.826141,5.346492 145.483627,11.571182 147.703461,20.762753 
	C150.099426,30.683619 152.025269,41.112900 151.624908,51.220127 
	C151.048523,65.770691 156.253830,77.189171 164.857346,88.230591 
	C172.276855,97.752510 179.222305,107.799278 185.097107,118.328323 
	C191.788147,130.320312 193.210602,143.510437 189.167038,157.151871 
	C194.561447,159.749588 196.144608,164.569290 197.562973,169.915085 
	C198.676453,174.111847 200.757462,178.290955 203.319031,181.816437 
	C209.306076,190.056351 208.511307,195.730362 199.474304,200.303223 
	C190.237686,204.977112 181.544128,210.038589 174.172897,217.670166 
	C170.515930,221.456299 164.423615,222.890152 159.216537,225.694107 
	C156.629440,226.000000 154.258896,226.000000 151.444168,226.000000 
	C145.810165,223.340469 140.901138,220.426910 138.635498,214.540070 
	C138.334564,213.758133 136.985855,213.018997 136.041412,212.899414 
	C122.315453,211.161224 108.581413,209.963318 94.973183,213.759018 
	C93.770935,214.094376 92.202492,214.450897 91.584496,215.340012 
	C85.567535,223.996567 77.028061,224.236984 67.908234,222.707199 
	C66.927681,222.542709 65.913734,222.346542 65.018639,221.938431 
	C54.028347,216.927063 42.452068,214.468597 30.505465,212.818924 
	C20.948826,211.499252 18.540497,206.376129 20.581078,197.012329 
	C21.476034,192.905548 21.788971,188.467133 21.300699,184.304291 
	C20.111416,174.164886 21.972649,169.956375 31.658810,166.788849 
	C38.051025,164.698517 40.776058,159.359222 44.559715,154.855225 
	C45.005814,154.324203 45.018871,153.288544 44.969898,152.503204 
	C43.907928,135.473511 51.069443,121.105980 59.839149,107.368271 
	C63.588070,101.495605 67.872231,95.936218 72.225037,90.483437 
	C81.077621,79.393745 84.355179,66.855827 83.656097,52.782391 
	C83.204979,43.700748 82.996185,34.397419 84.442352,25.479418 
	C86.715561,11.461317 95.307518,4.149588 109.847946,1.358310 
	C114.356903,1.000000 118.713799,1.000000 123.535355,1.000000 
M92.962982,56.818119 
	C92.962982,56.818119 93.098885,57.228634 92.801086,57.828625 
	C85.811623,62.667118 85.895622,66.899986 93.044403,71.754562 
	C94.825691,72.964188 96.664200,74.135712 98.256439,75.569084 
	C103.352768,80.156929 109.098564,80.467430 114.972404,77.808022 
	C119.949600,75.554573 124.784218,72.902290 129.430099,70.020515 
	C136.543106,65.608444 136.412949,61.828278 129.354462,57.587749 
	C129.168137,57.475807 129.190033,57.017227 129.742783,56.476696 
	C135.643066,53.304268 136.601532,44.075054 131.712433,37.510574 
	C126.542580,30.569138 117.222160,31.370529 113.802147,39.353996 
	C112.564484,42.243126 112.747849,45.741005 111.786728,49.661129 
	C109.073868,49.419277 106.361015,49.177425 103.912796,48.104027 
	C102.927139,44.183575 102.454590,40.026569 100.791214,36.418564 
	C99.493217,33.603104 96.305115,32.160503 93.115997,33.954945 
	C88.840332,36.360760 87.824089,40.686752 87.926811,45.141865 
	C88.026947,49.484741 87.739723,54.246178 92.962982,56.818119 
M59.359608,141.889099 
	C60.531094,149.807404 65.834007,154.477386 71.839607,159.096054 
	C78.219437,164.002518 84.546852,169.343643 89.536072,175.583298 
	C94.053329,181.232727 91.746597,185.693588 83.883087,187.955399 
	C87.393211,191.343903 90.060036,195.207092 93.738129,197.245880 
	C109.657562,206.070190 124.878738,202.457932 139.419174,193.394623 
	C140.637543,192.635193 141.654953,190.828033 141.903580,189.361481 
	C143.095673,182.330338 144.012985,175.251907 144.985428,168.184418 
	C145.956833,161.124496 147.283508,154.299438 154.568069,150.666687 
	C155.170425,150.366287 155.535019,149.431671 155.840958,148.719147 
	C158.359406,142.853653 161.498962,141.435532 167.612656,143.402588 
	C168.627228,143.729004 169.696960,143.883987 170.740326,144.117996 
	C172.876602,133.764160 171.706375,124.447609 165.660614,116.088493 
	C168.336212,124.035637 169.609665,131.939911 166.624847,140.067871 
	C161.828857,139.740631 161.967987,139.700150 160.786926,135.641617 
	C159.441254,131.017303 158.159424,126.325150 156.249115,121.923187 
	C148.856796,104.888847 141.225296,87.958313 133.848557,71.361877 
	C128.786575,74.023796 122.788933,77.497444 116.521240,80.384933 
	C110.091949,83.346878 103.685455,83.516312 97.920708,78.393944 
	C95.867081,76.569153 93.547379,75.043793 91.890175,73.790810 
	C88.452637,83.918053 85.630249,93.979622 81.647354,103.558670 
	C75.632668,118.024223 67.414795,131.675873 66.061256,148.125336 
	C64.943947,145.435516 63.826641,142.745712 62.840710,139.119827 
	C62.840710,134.091370 62.840710,129.062912 62.840710,124.034454 
	C62.145237,123.998955 61.449764,123.963448 60.754292,123.927948 
	C60.289631,129.643402 59.824974,135.358856 59.359608,141.889099 
M23.387182,204.647415 
	C26.085024,209.685211 31.181883,209.356796 35.666840,209.699707 
	C44.390678,210.366714 52.515491,212.501328 60.617661,215.976089 
	C66.040894,218.301926 72.490288,219.154800 78.460983,219.081329 
	C88.948090,218.952301 94.199997,209.070038 89.186691,199.890808 
	C87.442520,196.697266 85.183640,193.783035 83.136055,190.757339 
	C78.767975,184.302689 74.324371,177.898193 70.028305,171.396103 
	C67.198158,167.112686 65.069283,162.262085 61.742062,158.434097 
	C56.092079,151.933731 49.861389,152.462143 44.759258,159.391266 
	C41.421291,163.924500 37.605499,167.385910 32.054653,169.245651 
	C24.884815,171.647797 23.814754,174.646149 24.332664,182.244766 
	C24.686308,187.433289 23.867893,192.702515 23.560341,197.934860 
	C23.444118,199.912155 23.290905,201.887253 23.387182,204.647415 
M186.768204,159.330521 
	C183.281021,158.523544 180.589279,159.595978 177.683578,161.837753 
	C166.696838,170.314087 158.508148,167.550827 155.703766,154.782410 
	C155.647873,154.528015 155.332245,154.330658 155.150772,154.121628 
	C150.917068,156.714539 148.778763,159.425079 148.338242,166.044632 
	C147.526520,178.242401 145.325577,190.100800 141.734467,201.749527 
	C141.298050,203.165131 141.161758,204.695740 141.050110,206.185318 
	C140.359772,215.394501 146.854675,222.278534 156.076904,222.171661 
	C162.627380,222.095764 168.443008,219.427841 172.535400,214.821121 
	C179.615143,206.851578 188.484695,201.947998 197.718369,197.249557 
	C205.852264,193.110718 206.178650,189.738663 200.955048,182.419708 
	C198.247330,178.625839 196.400650,174.111053 194.744324,169.704224 
	C193.201065,165.598190 192.265518,161.317001 186.768204,159.330521 
z"/>

<path fill="#FFFFFF" opacity="1.000000" stroke="none" 
	d="
M92.970070,56.602020 
	C93.109421,56.232849 93.241684,56.079781 93.677246,55.926281 
	C93.907051,56.294209 93.833549,56.662560 93.429466,57.129772 
	C93.098885,57.228634 92.962982,56.818119 92.970070,56.602020 
z"/>
<path fill="#FFFFFF" opacity="1.000000" stroke="none" 
	d="
M116.685257,51.247185 
	C116.978172,49.742630 117.617645,48.574184 118.006516,47.327564 
	C118.985252,44.189976 119.628502,39.862751 123.737038,40.584774 
	C127.648094,41.272083 128.261826,45.502743 127.954720,49.130428 
	C127.808701,50.855263 126.885033,52.514267 126.185349,54.559753 
	C123.010605,53.793514 119.964157,52.670612 116.685257,51.247185 
z"/>
<path fill="#FFFFFF" opacity="1.000000" stroke="none" 
	d="
M94.267075,56.116009 
	C93.337341,53.288441 92.219246,50.571533 92.339645,47.910667 
	C92.429657,45.921398 94.117256,44.004417 95.093475,42.055248 
	C96.465416,43.642471 97.849854,45.219120 99.204758,46.820759 
	C100.058205,47.829624 100.867432,48.875908 102.130157,49.930466 
	C99.912735,52.053925 97.261642,54.152332 94.267075,56.116009 
z"/>
<path fill="#FFFFFF" opacity="1.000000" stroke="none" 
	d="
M125.889084,55.296860 
	C126.654533,55.014305 127.264648,55.117550 127.972496,55.547951 
	C127.291397,55.810959 126.512581,55.746807 125.889084,55.296860 
z"/>
</svg>