<svg version="1.1" id="Layer_1" xmlns="http://www.w3.org/2000/svg" xmlns:xlink="http://www.w3.org/1999/xlink" x="0px" y="0px"
	 width="100%" viewBox="0 0 225 225" enable-background="new 0 0 225 225" xml:space="preserve">
<path fill="#FFFFFF" opacity="1.000000" stroke="none" 
	d="
M149.622513,117.490189 
	C146.966141,138.559509 137.046127,155.308472 121.871559,169.011993 
	C118.687866,171.887054 117.369728,174.823807 117.136658,178.759964 
	C116.959702,181.748428 116.831268,184.779053 116.187813,187.681534 
	C115.926491,188.860291 114.357468,189.749146 113.383469,190.769897 
	C112.500137,189.836945 110.783905,188.830353 110.858902,187.982132 
	C111.915993,176.026917 104.468109,168.886688 97.222450,160.821762 
	C73.503136,134.420532 70.515640,100.721474 89.056557,69.854301 
	C96.045242,58.219437 104.757935,47.620125 112.965851,36.156071 
	C133.133316,60.159058 152.175415,83.705070 149.622513,117.490189 
M110.034737,162.301422 
	C109.785736,165.777222 109.388550,169.320267 114.965210,171.158157 
	C115.679749,168.506699 117.002594,166.007721 116.910431,163.562042 
	C116.112213,142.379532 115.062920,121.206436 114.066315,100.031578 
	C114.037010,99.408997 113.764778,98.797852 113.605812,98.181374 
	C113.399055,98.213501 113.192299,98.245636 112.985542,98.277763 
	C112.010162,119.306091 111.034775,140.334427 110.034737,162.301422 
z"/>
</svg>