<svg version="1.1" id="Layer_1" xmlns="http://www.w3.org/2000/svg" xmlns:xlink="http://www.w3.org/1999/xlink" x="0px" y="0px"
	 width="100%" viewBox="0 0 225 225" enable-background="new 0 0 225 225" xml:space="preserve">
<path fill="#FFFFFF" opacity="1.000000" stroke="none" 
	d="
M204.136139,112.870041 
	C209.313278,115.057556 214.123444,117.134834 218.615814,119.074867 
	C208.998062,128.878464 199.511078,138.656418 189.841248,148.250076 
	C188.798187,149.284912 186.576126,149.883713 185.101608,149.608765 
	C175.827652,147.879410 166.608261,145.856079 157.375946,143.905670 
	C154.630615,143.325699 151.002289,137.717285 151.510666,134.464966 
	C153.226028,123.491127 155.037796,112.531776 156.904938,101.582611 
	C157.425491,98.530136 163.789047,95.596611 166.872910,96.914040 
	C179.181747,102.172348 191.472015,107.474113 204.136139,112.870041 
z"/>
<path fill="#FFFFFF" opacity="1.000000" stroke="none" 
	d="
M65.686447,142.304413 
	C72.178726,140.426758 74.966576,144.101334 78.030334,148.629517 
	C92.905678,170.614944 108.085464,192.394394 123.226822,214.347412 
	C119.511307,217.867859 115.909401,221.280670 112.072945,224.915710 
	C91.689102,203.930771 70.991241,182.622559 50.090336,161.105316 
	C53.246769,156.524979 57.314472,150.461670 61.596046,144.553314 
	C62.392338,143.454483 64.048798,142.978973 65.686447,142.304413 
z"/>
<path fill="#FFFFFF" opacity="1.000000" stroke="none" 
	d="
M44.562283,68.566757 
	C49.678482,63.551563 54.448887,58.680038 59.488018,54.104469 
	C60.468842,53.213875 62.792423,52.791809 63.991409,53.313904 
	C72.477150,57.009033 80.894119,60.880867 89.169922,65.022263 
	C90.685257,65.780571 91.498436,67.999146 92.562317,69.592682 
	C97.421082,76.870392 92.188850,82.005486 88.698402,87.479073 
	C83.174561,96.141335 77.625320,104.787590 72.044273,113.413094 
	C69.421021,117.467331 64.806252,117.638718 62.103844,113.718628 
	C53.639912,101.440933 45.248508,89.113235 36.402542,76.181480 
	C39.028450,73.734924 41.669399,71.274353 44.562283,68.566757 
z"/>
<path fill="#FFFFFF" opacity="1.000000" stroke="none" 
	d="
M122.838509,144.060730 
	C125.040993,144.503235 126.828423,144.870911 128.610245,145.263977 
	C137.228989,147.165192 140.575150,152.057526 139.174438,160.803925 
	C136.864456,175.228165 134.564514,189.654388 132.132141,204.058136 
	C131.833145,205.828796 130.748169,207.466721 129.542404,210.309738 
	C112.012405,184.964005 95.200661,160.656769 78.388916,136.349518 
	C78.610069,135.974899 78.831215,135.600266 79.052368,135.225632 
	C93.508537,138.149628 107.964706,141.073624 122.838509,144.060730 
z"/>
<path fill="#FFFFFF" opacity="1.000000" stroke="none" 
	d="
M83.041748,53.971546 
	C77.526520,51.631687 72.379761,49.394939 68.443558,47.684288 
	C82.887238,32.367443 97.523209,16.846670 112.081726,1.408047 
	C119.002289,8.425150 125.291351,14.801946 131.918976,21.522015 
	C124.455055,33.179253 116.689339,45.307854 109.560410,56.441906 
	C105.116898,57.526855 101.578773,58.492813 97.990654,59.207809 
	C96.837631,59.437569 95.447823,59.267616 94.347206,58.827866 
	C90.657509,57.353680 87.049492,55.675030 83.041748,53.971546 
z"/>
<path fill="#FFFFFF" opacity="1.000000" stroke="none" 
	d="
M139.069031,101.030586 
	C142.372314,99.712822 145.304047,98.506264 149.205673,96.900558 
	C147.541687,107.225494 146.078247,116.319183 144.604980,125.411278 
	C144.525528,125.901649 144.329575,126.372818 144.245392,126.862816 
	C142.592987,136.481781 137.669357,139.938461 127.929634,138.015213 
	C112.963158,135.059891 98.022217,131.974472 83.082367,128.886581 
	C81.909454,128.644135 80.829704,127.950989 78.604507,126.992622 
	C99.384583,118.053444 119.041046,109.597618 139.069031,101.030586 
z"/>
<path fill="#FFFFFF" opacity="1.000000" stroke="none" 
	d="
M145.680969,34.319027 
	C146.608704,35.304028 147.204636,36.146198 147.985397,36.748932 
	C155.839493,42.812180 158.843719,50.075031 155.357910,60.033482 
	C153.522430,65.277245 153.495743,71.146980 152.579315,76.722061 
	C151.938980,80.617531 150.065598,82.149551 146.016464,80.382362 
	C136.907013,76.406670 127.694969,72.666801 118.553841,68.762665 
	C114.994026,67.242287 113.731323,62.597393 115.888100,59.260517 
	C123.009613,48.242386 130.152725,37.238216 137.361435,26.114689 
	C140.080032,28.791838 142.757477,31.428453 145.680969,34.319027 
z"/>
<path fill="#FFFFFF" opacity="1.000000" stroke="none" 
	d="
M85.304016,107.303810 
	C90.666161,99.087723 95.695656,91.083366 101.061485,83.311218 
	C102.159966,81.720123 104.452103,80.868187 106.317245,79.917213 
	C107.915733,79.102180 110.325470,79.128265 111.269119,77.918579 
	C114.176643,74.191360 117.065453,75.608086 120.312164,77.040321 
	C127.423874,80.177528 134.611282,83.142784 141.749435,86.220779 
	C143.039062,86.776863 144.241104,87.536041 146.787842,88.899956 
	C123.635757,98.934998 101.702866,108.441597 79.769966,117.948196 
	C79.553688,117.661385 79.337410,117.374573 79.121132,117.087761 
	C81.110863,113.924393 83.100601,110.761032 85.304016,107.303810 
z"/>
<path fill="#FFFFFF" opacity="1.000000" stroke="none" 
	d="
M13.022328,100.024765 
	C19.066633,93.594376 24.847843,87.400467 31.036222,80.770332 
	C39.952030,94.138000 48.142826,106.354942 56.207325,118.654686 
	C56.739262,119.465981 56.716644,121.655731 56.245300,121.913849 
	C54.986122,122.603386 53.240253,123.070221 51.866356,122.780083 
	C39.578297,120.185051 27.327612,117.412743 15.068608,114.680565 
	C10.727831,113.713127 6.394444,112.712532 1.590534,111.620911 
	C5.433949,107.711784 9.096593,103.986511 13.022328,100.024765 
z"/>
<path fill="#FFFFFF" opacity="1.000000" stroke="none" 
	d="
M176.739380,155.047363 
	C178.699203,155.514786 180.254944,155.926117 181.810669,156.337448 
	C181.469437,156.040100 181.128220,155.742752 180.786987,155.445404 
	C167.644440,168.925064 154.501907,182.404739 141.459839,195.781357 
	C143.591400,182.784180 145.764481,169.580643 147.918106,156.373917 
	C148.574432,152.349030 151.705185,150.097549 155.836136,150.892609 
	C162.678680,152.209549 169.503189,153.620148 176.739380,155.047363 
z"/>
<path fill="#FFFFFF" opacity="1.000000" stroke="none" 
	d="
M191.346100,79.436111 
	C201.981827,89.950249 212.327026,100.239784 222.672226,110.529312 
	C222.413727,110.931694 222.155243,111.334068 221.896744,111.736443 
	C203.817276,104.066124 185.737793,96.395813 166.744827,88.337936 
	C175.396729,85.089951 183.226151,82.150726 191.346100,79.436111 
z"/>
<path fill="#FFFFFF" opacity="1.000000" stroke="none" 
	d="
M40.323952,127.745911 
	C44.302017,128.563858 47.870155,129.286377 52.551163,130.234268 
	C43.385769,134.144287 35.178345,137.645630 27.464386,140.936462 
	C20.642803,134.221115 14.063336,127.744095 6.847436,120.640564 
	C18.340158,123.076958 29.127090,125.363731 40.323952,127.745911 
z"/>
<path fill="#FFFFFF" opacity="1.000000" stroke="none" 
	d="
M165.179901,54.084633 
	C171.580048,60.520435 177.725067,66.732803 184.231308,73.310333 
	C177.413223,76.344170 170.907639,79.429131 164.208008,82.010506 
	C163.228119,82.388062 159.949951,80.146065 160.055542,79.489059 
	C161.434769,70.907242 163.232376,62.392677 165.179901,54.084633 
z"/>
<path fill="#FFFFFF" opacity="1.000000" stroke="none" 
	d="
M44.224174,141.177765 
	C48.355839,139.546478 52.134777,138.072037 55.913715,136.597595 
	C56.151718,136.877838 56.389721,137.158081 56.627724,137.438324 
	C52.411869,144.003952 48.196014,150.569580 43.955830,157.173111 
	C40.303616,153.360825 36.895939,149.803787 33.206291,145.952423 
	C36.523746,144.516022 40.197598,142.925308 44.224174,141.177765 
z"/>
</svg>