<svg version="1.1" id="Layer_1" xmlns="http://www.w3.org/2000/svg" xmlns:xlink="http://www.w3.org/1999/xlink" x="0px" y="0px"
	 width="100%" viewBox="0 0 225 225" enable-background="new 0 0 225 225" xml:space="preserve">
<path fill="#FFFFFF" opacity="1.000000" stroke="none" 
	d="
M104.000000,226.000000 
	C102.933479,226.000000 101.866966,226.000000 100.245773,225.635269 
	C50.765320,218.174850 14.551036,184.885193 3.443645,136.815186 
	C2.684686,133.530609 1.817078,130.271149 1.000000,127.000000 
	C1.000000,125.611107 1.000000,124.222221 1.306063,122.267685 
	C1.701422,120.816551 1.790719,119.931068 1.932271,118.587189 
	C1.939829,114.734253 1.895131,111.339714 1.901216,107.551941 
	C1.634665,105.772476 1.317332,104.386238 0.999999,103.000000 
	C1.000000,101.933479 1.000000,100.866966 1.372799,99.280693 
	C2.110114,97.139633 2.497233,95.523026 2.835856,93.896324 
	C12.377215,48.060780 39.785198,18.578579 84.411385,4.965132 
	C89.839027,3.309401 95.465614,2.305821 101.000000,1.000000 
	C102.066521,1.000000 103.133034,1.000000 104.814377,1.354362 
	C107.978279,1.742383 110.527359,1.776043 113.488892,1.865726 
	C115.934227,1.614499 117.967117,1.307250 120.000000,1.000000 
	C121.388893,1.000000 122.777779,1.000000 124.739548,1.378800 
	C126.636208,1.859102 127.968689,1.895727 129.282547,2.071507 
	C172.994308,7.919658 210.631317,41.144661 222.022141,83.966980 
	C223.437424,89.287567 224.678314,94.654526 226.000000,100.000000 
	C226.000000,100.750000 226.000000,101.500000 225.614655,102.789551 
	C225.190247,105.875008 225.151184,108.420906 225.060669,111.408295 
	C225.060867,113.914894 225.112564,115.980003 225.110901,118.452484 
	C225.371689,120.573235 225.685837,122.286613 226.000000,124.000000 
	C226.000000,125.066521 226.000000,126.133034 225.628769,127.717133 
	C224.518860,131.809509 223.876175,135.407272 223.026413,138.955475 
	C215.979614,168.379333 199.515564,191.159805 174.453979,208.137436 
	C151.417770,173.217896 128.578094,138.584625 105.724236,103.960747 
	C99.420265,94.410156 93.093658,84.874367 86.736366,75.359222 
	C84.517601,72.038307 78.711678,70.537895 74.272285,72.061195 
	C70.384636,73.395180 71.217712,76.720139 71.213310,79.620018 
	C71.173126,106.104469 71.153152,132.588959 71.146820,159.073441 
	C71.145477,164.712418 72.342369,165.939102 77.661758,165.967499 
	C84.206207,166.002426 84.964439,165.295120 84.996941,158.981262 
	C85.094673,139.993423 85.173965,121.005463 85.282600,102.017677 
	C85.289192,100.865547 85.488632,99.714516 85.613419,98.404610 
	C112.573265,136.802231 139.266861,174.820648 166.437363,213.518311 
	C158.868668,216.282928 151.081711,219.458420 143.079605,221.940247 
	C137.199036,223.764099 131.036743,224.679672 125.000000,226.000000 
	C124.555557,226.000000 124.111115,226.000000 123.167114,225.675781 
	C121.464607,225.257507 120.261665,225.163452 118.604408,225.027084 
	C115.400566,225.031586 112.651031,225.078415 109.503113,225.089417 
	C107.403145,225.369064 105.701576,225.684540 104.000000,226.000000 
M147.500275,68.623848 
	C141.320786,68.951126 140.484039,69.607826 140.439606,75.593208 
	C140.311081,92.909485 140.323364,110.226837 140.307358,127.543800 
	C140.306458,128.523346 140.244476,129.694427 140.723297,130.452896 
	C145.007874,137.239883 149.407532,143.954208 153.915741,150.909592 
	C154.423126,150.119736 154.708450,149.882904 154.708633,149.645859 
	C154.727676,124.835175 154.679489,100.024323 154.765396,75.213928 
	C154.781250,70.631439 153.081650,68.246536 147.500275,68.623848 
z"/>
</svg>