<svg version="1.1" id="Layer_1" xmlns="http://www.w3.org/2000/svg" xmlns:xlink="http://www.w3.org/1999/xlink" x="0px" y="0px"
	 width="100%" viewBox="0 0 225 225" enable-background="new 0 0 225 225" xml:space="preserve">



<path fill="#FFFFFF" opacity="1.000000" stroke="none" 
	d="
M0.999997,134.460632 
	C10.926389,123.539757 20.852785,113.079514 31.087782,102.294075 
	C42.266163,113.450348 52.548103,123.102715 61.942535,133.552933 
	C64.063782,135.912567 63.095131,141.049927 63.613701,145.460312 
	C59.685120,145.460312 56.457893,145.460312 52.706890,145.460312 
	C52.706890,172.330109 52.706890,198.716461 52.853447,225.551407 
	C39.645771,226.000000 26.291544,226.000000 12.382160,225.538300 
	C11.827004,198.731598 11.827004,172.386627 11.827004,145.502457 
	C7.853151,145.685074 4.426575,145.842529 1.000000,146.000000 
	C1.000000,142.307098 1.000000,138.614182 0.999997,134.460632 
M24.768900,154.500092 
	C24.768900,173.911316 24.768900,193.322556 24.768900,212.693512 
	C30.037766,212.693512 34.621433,212.693512 39.604504,212.693512 
	C39.604504,210.635849 39.604500,208.829285 39.604500,207.022720 
	C39.604519,183.858612 39.563435,160.694290 39.674362,137.530716 
	C39.684376,135.439041 40.674683,133.352051 41.060719,131.844772 
	C38.004879,128.742569 34.888752,125.579155 32.110035,122.758278 
	C28.982964,125.705513 25.641314,128.854980 22.284058,132.019165 
	C24.768948,133.595428 24.768948,133.595428 24.768900,154.500092 
z"/>
<path fill="#FFFFFF" opacity="1.000000" stroke="none" 
	d="
M174.468658,226.000000 
	C174.109970,215.188873 174.278824,204.377945 174.315964,193.566574 
	C174.370224,177.775162 174.329910,161.983444 174.329910,145.694901 
	C170.760269,145.694901 167.519897,145.694901 164.367172,145.694901 
	C162.919403,138.672913 163.876495,133.347153 169.410324,128.442001 
	C178.219925,120.633240 186.190109,111.877495 194.779312,103.257301 
	C205.154984,113.607391 215.261902,123.689407 225.684418,133.885712 
	C226.000000,137.692902 226.000000,141.385818 225.564362,145.367310 
	C221.898071,145.655899 218.667435,145.655899 215.191559,145.655899 
	C215.191559,148.214920 215.195541,150.022324 215.190933,151.829712 
	C215.127975,176.553146 215.063843,201.276566 215.000000,226.000000 
	C201.645767,226.000000 188.291550,226.000000 174.468658,226.000000 
M196.479584,212.961136 
	C198.265167,212.961136 200.050751,212.961136 202.231140,212.961136 
	C202.231140,210.726120 202.231140,208.939133 202.231140,207.152161 
	C202.231094,183.707214 202.199478,160.262115 202.297867,136.817581 
	C202.304855,135.150085 203.266434,133.486572 203.940567,131.318100 
	C201.312027,128.803650 197.986588,125.622581 194.770126,122.545761 
	C191.757446,125.551437 188.513885,128.787430 185.913193,131.382080 
	C186.482712,133.588852 187.329575,135.355408 187.336258,137.125168 
	C187.424835,160.569778 187.395386,184.014832 187.395432,207.459778 
	C187.395432,209.225113 187.395447,210.990448 187.395447,212.961136 
	C190.547318,212.961136 193.034103,212.961136 196.479584,212.961136 
z"/>

<path fill="#FFFFFF" opacity="1.000000" stroke="none" 
	d="
M158.076004,43.020142 
	C157.754211,53.475967 158.201416,63.534821 156.928497,73.371071 
	C155.067474,87.751961 147.165817,98.956451 135.376938,107.261681 
	C132.739990,109.119385 131.743362,111.005051 131.885025,114.181190 
	C132.150696,120.136955 131.961517,126.112999 131.961517,132.354279 
	C119.576668,132.354279 107.514160,132.354279 95.593590,132.354279 
	C95.364113,132.014252 95.184677,131.869553 95.203903,131.759628 
	C96.981346,121.601875 91.991371,115.691437 84.233101,109.405418 
	C68.522606,96.676231 61.131931,79.057007 60.012753,58.811108 
	C59.794434,54.861752 61.125294,52.358406 64.741005,51.173897 
	C68.084152,50.078690 69.172211,48.082642 69.018730,44.523235 
	C68.703415,37.210388 68.903427,29.874357 68.930779,22.548016 
	C68.951279,17.054630 71.204338,13.829262 75.125961,14.145378 
	C79.932755,14.532846 81.390640,17.858419 81.336945,22.193705 
	C81.328911,22.841871 81.436302,23.491468 81.541565,24.756401 
	C85.199173,24.756401 88.805534,24.842070 92.401688,24.688663 
	C93.179626,24.655479 94.318077,23.930952 94.612251,23.237249 
	C96.114189,19.695528 98.476639,17.883419 102.386292,18.944700 
	C106.383041,20.029629 107.122337,23.154661 107.012489,26.745989 
	C106.997665,27.230602 107.158295,27.720583 107.267296,28.389988 
	C111.246933,28.389988 115.213654,28.389988 119.180367,28.389988 
	C118.973495,28.036314 118.766624,27.682640 118.559761,27.328966 
	C121.415924,25.673937 124.382790,22.489038 127.104942,22.686007 
	C132.578796,23.082088 132.755417,28.245699 132.794693,32.812805 
	C136.934006,32.812805 140.909836,32.812805 145.282776,32.812805 
	C145.545502,32.118649 145.621964,30.849384 146.239914,30.475777 
	C148.460266,29.133383 151.002243,27.002010 153.154938,27.275587 
	C154.963593,27.505442 157.248627,30.450979 157.799103,32.586910 
	C158.605316,35.715164 158.050705,39.194138 158.076004,43.020142 
z"/>
<path fill="#FFFFFF" opacity="1.000000" stroke="none" 
	d="
M128.953049,212.946198 
	C116.002335,212.946198 103.547867,212.946198 90.884911,212.946198 
	C90.884911,199.259476 90.884911,185.985260 90.884911,172.368332 
	C105.838882,172.368332 120.871918,172.368332 136.117813,172.368332 
	C136.117813,185.693878 136.117813,198.965088 136.117813,212.946198 
	C133.939392,212.946198 131.694336,212.946198 128.953049,212.946198 
z"/>
<path fill="#FFFFFF" opacity="1.000000" stroke="none" 
	d="
M93.138550,158.930725 
	C91.989319,158.057892 90.823746,157.221695 90.760048,156.308640 
	C90.529579,153.005035 90.669296,149.675598 90.669296,145.989990 
	C105.773056,145.989990 120.676582,145.989990 135.957550,145.989990 
	C135.957550,150.001541 135.957550,154.219498 135.957550,158.932098 
	C121.870651,158.932098 107.749214,158.932098 93.138550,158.930725 
z"/>

</svg>