<svg version="1.1" id="Layer_1" xmlns="http://www.w3.org/2000/svg" xmlns:xlink="http://www.w3.org/1999/xlink" x="0px" y="0px"
	 width="100%" viewBox="0 0 225 225" enable-background="new 0 0 225 225" xml:space="preserve">
<path fill="#FFFFFF" opacity="1.000000" stroke="none" 
	d="
M99.000000,0.999999 
	C107.687561,1.000000 116.375130,1.000000 125.730309,1.340922 
	C179.165817,9.590184 215.169861,44.458454 224.846909,96.985168 
	C225.038589,98.025612 225.607224,98.996605 226.000000,100.000000 
	C226.000000,108.687561 226.000000,117.375130 225.659485,126.718597 
	C225.124313,128.349899 224.892563,129.319565 224.740311,130.301544 
	C217.152084,179.246033 179.461624,216.862091 130.507645,224.779343 
	C129.304092,224.973984 128.167709,225.583817 127.000000,226.000000 
	C118.312439,226.000000 109.624870,226.000000 100.281891,225.659180 
	C98.980019,225.173309 98.339836,224.985764 97.686211,224.889252 
	C46.351318,217.308960 9.896152,177.568542 2.541120,131.930878 
	C2.322293,130.573074 1.526689,129.308197 1.000001,128.000000 
	C1.000000,118.979103 1.000000,109.958214 1.340811,100.281914 
	C1.849786,98.815208 2.056705,98.009781 2.180579,97.191772 
	C9.880461,46.345203 49.357849,9.938811 95.069092,2.540942 
	C96.426956,2.321186 97.691788,1.526583 99.000000,0.999999 
M104.259346,119.923485 
	C102.021446,121.959846 99.783539,123.996201 97.315994,126.540176 
	C97.197067,127.272682 97.078148,128.005188 96.271606,128.993759 
	C94.926613,129.588455 93.260086,129.859406 92.285645,130.827194 
	C80.794868,142.239594 69.407684,153.756302 57.519272,165.722610 
	C59.158535,167.118500 60.705986,168.377335 62.183372,169.713623 
	C63.289520,170.714142 64.416283,171.728134 65.326462,172.897552 
	C66.056458,173.835480 66.474968,175.015808 66.324608,176.185165 
	C62.958630,173.144531 59.592655,170.103897 56.913330,167.683548 
	C53.634953,170.481979 50.566784,173.100983 46.431709,176.630707 
	C53.661095,177.118729 59.505276,177.562317 65.357635,177.820786 
	C65.858620,177.842911 66.413956,176.634506 67.384338,175.303894 
	C68.442612,175.893219 69.500885,176.482544 71.506569,177.599457 
	C71.234955,175.137878 71.392723,173.606171 70.871017,172.358612 
	C68.755066,167.298752 70.837311,165.038559 75.364914,162.390625 
	C88.645576,154.623474 101.504349,146.127350 114.399078,137.718491 
	C115.841026,136.778183 116.453751,134.566284 118.002502,132.627625 
	C118.332321,132.362564 118.662148,132.097488 119.699173,132.056854 
	C120.548569,131.668304 121.608795,131.484619 122.215492,130.860245 
	C130.289154,122.551476 138.726303,114.539780 146.162750,105.689323 
	C150.525879,100.496552 153.270737,93.944069 156.996780,87.348137 
	C156.340683,86.895493 155.684586,86.442841 155.028915,85.232971 
	C158.646896,78.426414 157.209076,75.248962 149.981644,73.474739 
	C149.996887,73.000397 150.012146,72.526062 149.792114,71.360062 
	C146.070465,68.234734 141.885559,68.452812 138.123840,70.692566 
	C132.712372,73.914558 127.291206,77.314133 122.539917,81.410156 
	C113.016068,89.620514 103.943230,98.354034 95.104637,106.484848 
	C97.063751,109.671509 98.491432,111.993744 99.278893,114.043999 
	C97.249016,112.460335 95.219139,110.876678 93.790260,109.761909 
	C89.941620,113.526375 86.265602,117.122009 81.843422,121.447479 
	C88.586945,119.981384 94.563759,118.681984 100.639572,117.361053 
	C100.282280,116.008850 100.042038,115.099640 100.447235,114.025368 
	C101.795357,114.560280 103.143478,115.095200 105.572990,115.876945 
	C105.926826,115.984123 106.280670,116.091293 106.214066,116.820198 
	C106.232964,117.515404 106.251869,118.210609 105.809563,119.299538 
	C105.526627,119.588158 105.243683,119.876778 104.259346,119.923485 
M177.741577,48.790844 
	C177.480576,48.523277 177.219574,48.255711 176.973679,47.267754 
	C171.250015,41.716812 162.330673,41.555531 155.779388,46.884518 
	C149.387344,52.083977 147.529648,62.394440 151.521912,68.932411 
	C156.386368,76.898727 167.015915,78.645844 172.319046,76.140717 
	C172.836517,75.896263 172.996933,74.895912 174.354141,74.006287 
	C174.699814,73.935280 175.045486,73.864273 176.052887,73.876633 
	C184.195908,68.865562 186.422928,57.375832 180.555099,50.221531 
	C180.062576,49.621010 178.919678,49.553898 177.741577,48.790844 
z"/>
87.351921 155.865707,87.677567 156.743530,88.003212 
z"/>

<path fill="#FFFFFF" opacity="1.000000" stroke="none" 
	d="
M144.753265,94.107635 
	C143.860626,95.693375 143.303940,97.652908 142.021790,98.805252 
	C132.429871,107.426086 122.694572,115.887398 112.675957,124.686966 
	C114.720276,127.036469 116.623459,129.223770 118.275864,131.709595 
	C116.835594,131.410660 115.225380,131.118439 114.531250,130.161606 
	C111.877602,126.503723 108.633003,125.927345 104.561272,127.295700 
	C102.374893,128.030457 100.027611,128.286453 97.356079,128.748093 
	C97.078148,128.005188 97.197067,127.272682 97.863251,126.376755 
	C101.478203,125.583443 104.545898,124.953568 108.091042,124.225655 
	C106.710655,122.435181 105.835701,121.300285 104.960739,120.165390 
	C105.243683,119.876778 105.526627,119.588158 106.040161,119.102676 
	C107.777100,120.152603 109.283432,121.399391 111.109360,122.910706 
	C121.924454,113.443069 132.702255,104.008080 143.920975,94.412628 
	C144.361908,94.252167 144.753265,94.107635 144.753265,94.107635 
z"/>
<path fill="#FFFFFF" opacity="1.000000" stroke="none" 
	d="
M150.005753,73.830109 
	C148.355331,75.526993 146.543152,76.729660 145.027985,78.231903 
	C132.386261,90.765778 119.799202,103.354805 106.915085,116.062828 
	C106.280670,116.091293 105.926826,115.984123 105.032303,115.753540 
	C118.144844,101.846893 131.779892,88.045494 145.488754,74.317810 
	C146.494202,73.310982 148.033081,72.836868 149.675690,72.083405 
	C150.012146,72.526062 149.996887,73.000397 150.005753,73.830109 
z"/>

<path fill="#FFFFFF" opacity="1.000000" stroke="none" 
	d="
M177.910248,49.014908 
	C173.873932,53.685867 169.668930,58.132759 164.118912,64.002045 
	C167.763611,67.055260 171.421616,70.119629 175.235382,73.488632 
	C175.045486,73.864273 174.699814,73.935280 173.838623,74.126366 
	C169.697784,70.472923 166.072479,66.699394 161.889481,62.345367 
	C166.692017,57.668743 171.522110,52.965294 176.655396,48.124996 
	C177.219574,48.255711 177.480576,48.523277 177.910248,49.014908 
z"/>
<path fill="#FFFFFF" opacity="1.000000" stroke="none" 
	d="
M117.607407,132.079788 
	C118.123177,131.771805 118.272285,131.584961 118.706680,131.615265 
	C118.662148,132.097488 118.332321,132.362564 117.726761,132.785858 
	C117.380928,132.696365 117.310844,132.448654 117.607407,132.079788 
z"/>
<path fill="#FFFFFF" opacity="1.000000" stroke="none" 
	d="
M152.814362,87.083984 
	C152.559006,87.413788 152.071564,87.855415 151.421494,88.482948 
	C151.700012,88.177834 152.141144,87.686821 152.814362,87.083984 
z"/>
<path fill="#FFFFFF" opacity="1.000000" stroke="none" 
	d="
M153.848785,86.282143 
	C153.925659,86.034782 153.606613,86.319115 153.540070,86.522125 
	C153.473526,86.725143 153.135635,86.765976 153.040405,86.907349 
	C153.220764,86.875641 153.496338,86.702576 153.848785,86.282143 
z"/>
</svg>