<svg version="1.1" id="Layer_1" xmlns="http://www.w3.org/2000/svg" xmlns:xlink="http://www.w3.org/1999/xlink" x="0px" y="0px"
	 width="100%" viewBox="0 0 225 225" enable-background="new 0 0 225 225" xml:space="preserve">
<path fill="#FFFFFF" opacity="1.000000" stroke="none" 
	d="
M105.464645,228.000000 
	C87.893776,223.581665 73.301651,213.708267 57.311562,205.523407 
	C56.997242,182.941986 57.004726,161.007065 57.012215,139.072128 
	C67.305000,139.269241 78.066528,137.643448 87.768501,140.138214 
	C99.155937,143.066376 109.608849,149.606049 120.503471,154.498322 
	C122.125702,155.226791 123.937340,155.889191 125.678185,155.934418 
	C132.167282,156.103088 138.688385,155.669434 145.145370,156.154953 
	C147.985428,156.368484 151.266678,157.614792 153.361374,159.492447 
	C158.739349,164.313217 158.530960,169.888000 152.385223,173.567978 
	C147.849136,176.284134 142.408310,177.967499 137.157074,178.873383 
	C132.153259,179.736603 126.821693,178.568085 121.739571,179.175003 
	C119.744987,179.413193 118.036621,182.048218 116.197914,183.591690 
	C117.760658,185.251266 119.152596,188.075562 120.920700,188.334869 
	C124.955498,188.926590 129.236343,187.744522 133.304092,188.230362 
	C139.236053,188.938858 144.492889,186.984085 149.759888,185.101425 
	C156.488403,182.696335 161.028488,177.909958 164.053375,171.331345 
	C165.239166,168.752518 167.593201,166.176651 170.081116,164.826553 
	C179.110931,159.926422 188.280441,155.217880 197.698624,151.131638 
	C201.461670,149.498978 206.140457,148.694931 210.168137,149.241104 
	C216.977173,150.164429 220.757248,155.160477 222.651672,161.886993 
	C223.000000,162.444443 223.000000,162.888901 222.646790,163.779999 
	C221.009918,169.787292 218.027176,173.949478 213.208496,177.256393 
	C183.619827,197.562134 153.043106,215.984634 119.000000,228.000000 
	C114.643097,228.000000 110.286201,228.000000 105.464645,228.000000 
z"/>
<path fill="#FFFFFF" opacity="1.000000" stroke="none" 
	d="
M2.110652,210.017792 
	C2.054632,184.990372 1.998612,159.962952 2.145499,134.293427 
	C2.596064,133.428757 2.806242,133.175140 2.978939,132.890472 
	C16.349186,132.870972 29.719433,132.851456 43.684002,133.156876 
	C44.593693,133.619034 44.909058,133.756256 45.224422,133.893494 
	C45.224422,133.893494 45.083290,133.913132 45.161705,134.099884 
	C45.490429,134.523758 45.740738,134.760880 45.991043,134.998016 
	C46.062939,159.691986 46.134834,184.385956 45.776039,209.542175 
	C45.125198,210.022949 44.905048,210.041504 44.236206,210.075500 
	C30.310781,210.073761 16.834053,210.056595 3.045941,210.017609 
	C2.526589,210.003143 2.318621,210.010468 2.110652,210.017792 
z"/>
<path fill="#FFFFFF" opacity="1.000000" stroke="none" 
	d="
M97.671494,1.969279 
	C102.649719,1.600550 104.004822,4.240520 103.968765,8.401153 
	C103.885269,18.036646 103.942215,27.673357 103.942215,37.708572 
	C110.207031,37.708572 116.238670,37.708572 122.942459,37.708572 
	C122.942459,27.743048 122.989571,17.822102 122.917992,7.902010 
	C122.891411,4.218747 123.811104,1.612240 128.594482,1.893230 
	C144.348846,8.741426 154.129211,20.082071 156.307556,37.041557 
	C158.428513,53.554195 152.588608,67.062477 139.485336,77.243835 
	C136.979797,79.190651 135.957596,80.998528 136.012711,84.165367 
	C136.215469,95.816322 135.946945,107.475655 136.163330,119.126122 
	C136.253036,123.955315 134.177734,125.685829 129.627243,125.646095 
	C118.806038,125.551582 107.982269,125.522408 97.161987,125.659805 
	C92.560333,125.718231 90.521454,124.016273 90.603638,119.195114 
	C90.805084,107.377563 90.765343,95.552681 90.569618,83.734940 
	C90.538841,81.876602 89.729324,79.270943 88.364471,78.307068 
	C60.625061,58.717224 64.609787,15.661755 97.671494,1.969279 
M127.069756,85.550278 
	C126.107956,78.585938 127.908768,73.561211 134.559525,69.498451 
	C142.411667,64.701775 146.032272,56.331577 147.631821,47.341030 
	C149.832047,34.974174 142.640320,19.599150 131.887146,14.366488 
	C131.887146,21.229797 131.922714,27.813766 131.878372,34.397198 
	C131.819534,43.132786 128.031342,46.969875 119.477844,47.019955 
	C115.314865,47.044327 111.151352,47.053879 106.988541,47.017487 
	C98.757607,46.945534 95.034729,43.279743 94.984779,35.152664 
	C94.942268,28.236921 94.975998,21.320709 94.975998,13.695348 
	C93.584099,14.493233 92.861351,14.802379 92.259468,15.267822 
	C73.289925,29.937199 74.518387,58.789223 94.857887,71.773819 
	C98.133202,73.864761 99.340683,76.033577 99.274826,79.776192 
	C99.081497,90.763435 99.124542,101.757683 99.311577,112.745163 
	C99.335030,114.122810 100.736649,116.633194 101.568008,116.662209 
	C109.969063,116.955482 118.384354,116.840996 127.069870,116.840996 
	C127.069870,106.165283 127.069870,96.350906 127.069756,85.550278 
z"/>
</svg>