<svg version="1.1" id="Layer_1" xmlns="http://www.w3.org/2000/svg" xmlns:xlink="http://www.w3.org/1999/xlink" x="0px" y="0px"
	 width="100%" viewBox="0 0 1024 1024" enable-background="new 0 0 1024 1024" xml:space="preserve">
<path fill="#FFFFFF" opacity="1.000000" stroke="none" 
	d="
M582.033447,601.917358 
	C620.316772,630.959473 643.259094,668.951782 651.036072,715.951172 
	C653.321228,729.761597 653.331421,743.797791 653.142883,757.798645 
	C653.006042,767.960693 653.217529,778.127441 653.079102,788.289490 
	C652.969543,796.334778 648.751648,800.574280 640.747864,801.014404 
	C638.421570,801.142395 636.083679,801.073364 633.751099,801.073547 
	C474.294250,801.084656 314.837402,801.094482 155.380539,801.100891 
	C143.159744,801.101379 139.660324,797.590881 139.660110,785.358093 
	C139.659821,769.362427 139.211258,753.350952 139.761414,737.374023 
	C141.435730,688.749756 160.087097,647.616394 195.600235,614.337524 
	C221.234955,590.315674 251.678253,575.854065 286.272766,570.051758 
	C309.096802,566.223572 331.357147,566.249390 352.052765,578.883667 
	C357.730896,582.350037 364.218506,584.244812 370.696625,585.909302 
	C395.069153,592.171387 419.053955,590.487244 441.025391,578.501526 
	C462.162048,566.971130 483.807678,566.413391 506.441223,570.138184 
	C534.051880,574.682007 559.134216,585.242798 582.033447,601.917358 
z"/>
<path fill="#FFFFFF" opacity="1.000000" stroke="none" 
	d="
M813.802734,726.772766 
	C790.553650,754.912048 763.562683,778.159424 732.834656,797.206055 
	C725.663696,801.650879 719.605286,801.641052 712.531677,797.170532 
	C697.564758,787.711487 683.330627,777.333069 669.831360,765.891602 
	C667.313293,763.757324 666.892700,761.344666 666.940674,758.392456 
	C667.270996,738.052063 666.891296,717.805969 661.876770,697.865356 
	C650.986572,654.560364 627.810974,619.411194 592.540405,592.158081 
	C584.348816,585.828552 575.600769,580.330383 566.468201,575.474670 
	C564.012939,574.169250 562.848389,572.527893 562.435181,569.743408 
	C560.256897,555.064941 558.956177,540.305725 558.885010,525.487244 
	C558.718506,490.826843 558.835205,456.165009 558.854370,421.503784 
	C558.860596,410.197418 563.483765,404.036682 574.123474,401.059204 
	C613.229797,390.115417 652.335022,379.167633 691.444397,368.234924 
	C709.302002,363.242981 727.293335,362.812469 745.208984,367.556946 
	C787.365906,378.721039 829.463684,390.108734 871.573853,401.448822 
	C882.011414,404.259613 886.303406,410.052399 886.307739,421.045868 
	C886.321350,455.540466 886.557617,490.036987 886.278320,524.529297 
	C885.673218,599.271729 862.169006,666.002625 815.555420,724.518555 
	C815.036316,725.170227 814.537842,725.838318 813.802734,726.772766 
M709.484741,641.159668 
	C719.622620,644.274292 728.393799,641.660217 735.336304,634.009155 
	C756.258667,610.951355 776.420288,587.214905 797.611328,564.388123 
	C806.160889,555.178589 805.998657,541.738159 798.243652,532.331543 
	C790.744019,523.234985 777.289856,520.745850 767.027527,526.602600 
	C763.058777,528.867554 760.056335,532.256348 757.050537,535.595703 
	C745.245239,548.711243 733.410522,561.801697 721.754883,575.049438 
	C718.863892,578.335327 716.987427,578.779480 714.091675,574.983643 
	C708.439148,567.573975 702.471069,560.394043 696.410278,553.310181 
	C690.987732,546.972168 683.902222,543.696167 675.573608,544.770813 
	C654.804138,547.450684 646.064270,569.105347 659.106689,585.530762 
	C671.532471,601.179749 684.245911,616.600342 696.842957,632.113159 
	C700.050476,636.063110 703.890747,639.173950 709.484741,641.159668 
z"/>
<path fill="#FFFFFF" opacity="1.000000" stroke="none" 
	d="
M506.716797,271.291779 
	C529.409912,294.906830 543.915527,322.461456 548.892517,354.477234 
	C556.540222,403.672150 543.756958,447.303894 510.403137,484.315918 
	C484.259491,513.327087 451.267059,530.517273 412.411377,533.905884 
	C351.599030,539.209229 303.043304,516.184265 268.005341,466.163086 
	C247.710220,437.189117 239.446884,404.336395 241.874588,369.161713 
	C246.644867,300.045807 296.006744,244.550781 358.993042,229.714493 
	C415.488251,216.407211 464.623657,231.166672 506.716797,271.291779 
z"/>

</svg>