<svg version="1.1" id="Layer_1" xmlns="http://www.w3.org/2000/svg" xmlns:xlink="http://www.w3.org/1999/xlink" x="0px" y="0px"
	 width="100%" viewBox="0 0 311 162" enable-background="new 0 0 311 162" xml:space="preserve">
<path fill="#FFFFFF" opacity="1.000000" stroke="none" 
	d="
M312.000000,79.750000 
	C303.718903,85.142921 295.420197,90.257835 287.164001,95.440437 
	C282.944519,98.089088 278.801178,100.859062 274.173767,103.866447 
	C255.980972,77.476303 237.808548,51.115707 219.221191,24.153210 
	C230.338898,16.707287 241.320557,9.352495 252.974670,2.042159 
	C258.515900,8.436942 263.416351,14.763283 268.247528,21.142080 
	C282.846130,40.417126 297.417816,59.712540 312.000000,79.000000 
	C312.000000,79.000000 312.000000,79.500000 312.000000,79.750000 
M275.015564,77.000366 
	C278.339600,83.969734 285.198303,85.736153 289.595337,80.685196 
	C292.284058,77.596603 292.805634,74.068146 290.562164,70.558861 
	C288.402740,67.181068 285.223785,65.553185 281.175171,66.757385 
	C276.542908,68.135178 274.468231,71.367805 275.015564,77.000366 
z"/>
<path fill="#FFFFFF" opacity="1.000000" stroke="none" 
	d="
M62.956902,3.604171 
	C67.935829,6.863988 72.914757,10.123806 78.031898,13.938091 
	C78.170113,14.492559 78.535782,14.808752 78.535782,14.808752 
	C78.535782,14.808752 78.947960,14.556131 78.947960,14.556131 
	C83.713028,17.755402 88.478096,20.954670 93.618279,24.405792 
	C75.073776,51.305462 57.005188,77.514786 38.868481,103.822922 
	C26.251955,95.709541 13.981263,87.818558 1.355285,79.963791 
	C1.000000,80.000000 1.000000,79.500000 1.000000,79.250000 
	C19.384998,54.635323 37.731892,30.241592 56.238834,5.969892 
	C57.502258,4.312924 59.965740,3.570986 62.014160,2.954828 
	C62.157215,3.506161 62.521919,3.841923 62.521919,3.841923 
	C62.521919,3.841923 62.956902,3.604171 62.956902,3.604171 
M34.520535,67.941490 
	C33.311817,67.433327 32.146275,66.694870 30.886566,66.458710 
	C26.502222,65.636757 21.986990,69.074242 21.183973,73.687302 
	C20.478706,77.738831 23.496347,82.218323 27.359804,83.130638 
	C31.620802,84.136841 34.948273,82.818184 37.041393,79.104218 
	C39.263577,75.161247 38.434937,71.489052 34.520535,67.941490 
z"/>

<path fill="#FFFFFF" opacity="1.000000" stroke="none" 
	d="
M150.444168,163.000000 
	C139.708267,156.921021 138.566772,150.036407 146.310226,140.807968 
	C148.338684,138.390503 150.349075,135.957764 152.354950,133.521484 
	C156.454544,128.542236 162.069489,127.357979 167.252258,130.390900 
	C172.459778,133.438309 175.359100,140.254730 172.078247,145.403732 
	C168.162918,151.548477 162.692276,156.702225 157.947693,162.642639 
	C155.629440,163.000000 153.258896,163.000000 150.444168,163.000000 
z"/>
<path fill="#FFFFFF" opacity="1.000000" stroke="none" 
	d="
M166.990646,44.974495 
	C177.535889,45.718269 187.569107,48.276829 197.023132,53.950787 
	C197.169357,54.495056 197.544434,54.803116 197.544434,54.803116 
	C197.544434,54.803116 197.938446,54.519691 197.938446,54.519691 
	C200.558167,56.157848 203.177902,57.796009 205.968414,59.986565 
	C206.439011,60.630623 206.738831,60.722290 207.038635,60.813953 
	C210.978165,63.348412 214.917709,65.882874 219.005035,68.963120 
	C219.152832,69.508904 219.517288,69.848511 219.517288,69.848511 
	C219.517288,69.848511 219.960632,69.621361 219.960632,69.621353 
	C222.961746,71.544350 225.962860,73.467346 229.089935,75.928940 
	C229.215897,76.467537 229.575455,76.749084 229.575455,76.749084 
	C229.575455,76.749084 229.918411,76.447365 229.918411,76.447365 
	C234.933578,79.761681 239.948761,83.075996 245.089905,86.928833 
	C245.215866,87.467354 245.575394,87.748787 245.575394,87.748787 
	C245.575394,87.748787 245.918396,87.447281 245.918396,87.447281 
	C248.544266,89.108963 251.170135,90.770630 253.962387,92.977890 
	C254.409210,93.577362 254.689651,93.631256 254.970093,93.685143 
	C259.334015,95.159256 259.789429,98.114555 258.049713,101.873505 
	C255.293182,107.829422 249.471497,110.058174 241.555908,107.634155 
	C240.383972,107.304588 239.805679,107.321442 239.227402,107.338303 
	C239.444824,107.983154 239.662247,108.628006 239.879684,109.272850 
	C240.556137,114.767746 239.975983,119.868805 234.843735,123.196289 
	C230.251297,126.173820 225.562210,125.843468 220.457458,122.736115 
	C219.466049,122.083229 218.968979,121.784286 218.252853,121.337555 
	C217.784576,121.236954 217.535355,121.284134 217.286133,121.331314 
	C217.469208,121.607933 217.652267,121.884544 217.861481,122.489044 
	C218.193237,123.374519 218.498856,123.932098 218.804459,124.489677 
	C219.632629,130.276627 218.604660,135.428177 213.164398,138.594482 
	C207.156876,142.090927 201.816559,139.973541 196.343536,135.738724 
	C195.279404,135.406662 194.710129,135.429794 194.140854,135.452927 
	C194.422409,135.979645 194.703964,136.506363 194.985535,137.033081 
	C195.579071,147.994965 190.805161,153.890274 181.852463,152.994064 
	C179.798859,152.788483 177.824493,151.791382 175.858734,151.172745 
	C176.660172,147.680710 177.782379,144.710861 177.950974,141.687836 
	C178.412857,133.404999 174.029297,127.634163 165.682175,124.375397 
	C164.380035,123.867027 162.501617,122.232910 162.563202,121.221245 
	C163.581528,104.493965 153.886902,96.544075 137.719864,101.496407 
	C135.983017,95.898125 133.123779,91.089432 127.411995,88.545364 
	C121.806625,86.048714 116.500633,86.889168 111.145973,89.865891 
	C110.624107,88.588234 110.224777,87.518173 109.756798,86.479034 
	C104.707779,75.267876 90.596237,72.632339 82.034348,81.470055 
	C78.114876,85.515793 74.640320,89.992554 70.648766,94.640945 
	C66.014839,92.099907 61.449486,89.596474 56.472176,86.867134 
	C66.293724,72.601021 75.867821,58.692280 85.444351,44.785202 
	C88.930099,39.723190 92.547295,34.745743 95.863182,29.574959 
	C97.841125,26.490576 100.127487,24.431330 103.887794,23.605562 
	C108.727089,22.542849 113.412621,20.779936 118.832291,19.591705 
	C120.018433,19.886658 120.536659,19.908527 121.054886,19.930393 
	C119.538307,26.154505 118.159370,32.416256 116.470062,38.593128 
	C114.392250,46.190536 112.055534,53.717144 109.704300,61.703781 
	C112.229507,62.348614 114.568047,62.945786 117.129929,63.865349 
	C117.474213,64.186172 117.595154,64.184601 117.716095,64.183037 
	C117.639107,64.091782 117.562119,64.000534 117.485130,63.909275 
	C122.016907,64.282410 126.548683,64.655548 131.660034,65.352104 
	C133.064545,65.200172 133.889511,64.724823 134.714462,64.249474 
	C141.902573,63.208866 146.169830,58.281162 148.624008,52.235321 
	C150.654037,47.234295 153.364838,44.914986 158.684814,45.383678 
	C160.464325,45.540451 162.293716,45.131245 164.642487,45.298676 
	C165.786667,45.402561 166.388657,45.188530 166.990646,44.974495 
z"/>
<path fill="#FFFFFF" opacity="1.000000" stroke="none" 
	d="
M138.539078,18.157043 
	C139.151138,18.111000 139.763184,18.064955 140.751694,18.250904 
	C141.369995,18.307404 141.611832,18.131912 141.853683,17.956421 
	C142.667801,17.683002 143.481934,17.409586 144.764587,17.432280 
	C146.018433,17.209093 146.803726,16.689796 147.589035,16.170500 
	C148.186752,16.122173 148.784470,16.073847 149.801361,16.319942 
	C150.934601,16.118460 151.648666,15.622557 152.362747,15.126652 
	C156.714340,14.367395 161.059296,13.566398 165.421387,12.873143 
	C166.814270,12.651772 168.375885,12.317627 169.650772,12.712163 
	C180.822739,16.169542 191.945648,19.785303 203.092789,23.323603 
	C203.461426,23.440611 203.956619,23.115192 204.353210,23.194372 
	C210.379730,24.397541 215.081802,26.403738 218.925598,32.412098 
	C230.273514,50.150444 242.838089,67.110237 254.903717,84.390633 
	C255.316177,84.981369 255.483383,85.743324 254.988876,87.284164 
	C253.722641,86.459084 252.437775,85.661079 251.192978,84.804810 
	C235.850311,74.250954 220.412338,63.831406 205.216766,53.069668 
	C197.325516,47.480961 188.804123,43.776787 179.350021,42.003796 
	C176.796082,41.524837 174.304123,40.715408 171.344543,39.610237 
	C168.765457,35.831833 167.158691,36.257019 166.002792,39.858696 
	C163.683823,40.031078 161.364868,40.203465 158.407379,40.061882 
	C156.180298,40.116104 154.591736,40.484299 153.003189,40.852493 
	C149.130966,40.755775 147.016983,42.088814 145.829987,46.346699 
	C142.893265,56.880863 136.857269,60.732960 125.835655,59.993408 
	C122.587944,59.775486 119.379768,58.968227 115.807205,58.373394 
	C119.354500,46.212654 122.597702,34.590420 126.281403,23.109518 
	C126.737373,21.688383 129.537048,21.019232 131.694550,20.237961 
	C132.374496,20.301123 132.610611,20.127945 132.846710,19.954769 
	C133.666122,19.669756 134.485550,19.384745 135.766357,19.394957 
	C136.998199,19.179136 137.768646,18.668089 138.539078,18.157043 
z"/>
<path fill="#FFFFFF" opacity="1.000000" stroke="none" 
	d="
M144.886612,104.695045 
	C150.322815,104.751747 154.805313,106.604454 157.078522,111.859947 
	C159.283005,116.956512 158.028870,121.528328 154.486969,125.695465 
	C148.563919,132.664108 142.824936,139.789719 136.873505,146.733582 
	C131.579559,152.910309 124.381073,153.765305 118.883896,149.090775 
	C113.538185,144.545029 113.387299,137.089050 118.491859,130.933411 
	C124.117065,124.149887 129.608887,117.250778 135.402130,110.614433 
	C137.307220,108.432091 139.971085,106.912109 142.754578,105.353439 
	C143.776306,105.310089 144.331467,105.002571 144.886612,104.695045 
z"/>
<path fill="#FFFFFF" opacity="1.000000" stroke="none" 
	d="
M125.927971,93.837723 
	C132.877640,97.631645 134.697479,105.659401 130.086105,111.468666 
	C124.409081,118.620392 118.627502,125.697891 112.656822,132.604935 
	C107.936813,138.065140 100.521194,138.442062 95.325500,133.866211 
	C90.420738,129.546585 90.075951,122.270912 94.507751,116.846176 
	C100.075226,110.031342 105.524017,103.115585 111.233475,96.422050 
	C115.496902,91.423782 120.884583,90.652443 125.927971,93.837723 
z"/>
<path fill="#FFFFFF" opacity="1.000000" stroke="none" 
	d="
M97.875885,81.631248 
	C98.503586,81.918098 99.131287,82.204941 99.957748,82.999695 
	C100.156509,83.507607 100.521576,83.841728 100.521576,83.841728 
	C100.521576,83.841728 100.955780,83.604294 100.955780,83.604294 
	C107.667694,89.602715 108.145332,94.459877 102.608383,101.401985 
	C98.775856,106.207115 94.962799,111.034523 90.951080,115.688217 
	C86.377335,120.993912 79.180214,121.739456 74.071396,117.674103 
	C68.829575,113.502922 67.944473,105.839676 72.336624,100.300537 
	C76.257050,95.356331 80.023300,90.135017 84.717300,86.015625 
	C87.654694,83.437820 92.183388,82.673271 96.527275,81.269730 
	C97.169800,81.710304 97.283104,81.976250 97.396416,82.242203 
	C97.556236,82.038551 97.716064,81.834900 97.875885,81.631248 
z"/>
<path fill="#FFFFFF" opacity="1.000000" stroke="none" 
	d="
M166.416107,39.920074 
	C167.158691,36.257019 168.765457,35.831833 170.951172,39.504250 
	C169.607773,39.890945 168.218613,39.936203 166.416107,39.920074 
z"/>
<path fill="#FFFFFF" opacity="1.000000" stroke="none" 
	d="
M153.384949,40.916580 
	C154.591736,40.484299 156.180298,40.116104 157.973480,40.070217 
	C156.707626,40.588573 155.237167,40.784618 153.384949,40.916580 
z"/>

<path fill="#FFFFFF" opacity="1.000000" stroke="none" 
	d="
M121.284737,20.139065 
	C120.938141,19.808451 120.933403,19.566738 120.933922,18.962294 
	C121.168312,19.142363 121.397446,19.685163 121.284737,20.139065 
z"/>
</svg>