<svg version="1.1" id="Layer_1" xmlns="http://www.w3.org/2000/svg" xmlns:xlink="http://www.w3.org/1999/xlink" x="0px" y="0px"
	 width="100%" viewBox="0 0 230 219" enable-background="new 0 0 230 219" xml:space="preserve">
<path fill="#FFFFFF" opacity="1.000000" stroke="none" 
	d="
M107.449982,220.000000 
	C103.428940,219.020309 99.620598,218.539932 96.327621,216.975067 
	C81.539726,209.947662 66.876358,202.655563 52.256664,195.283249 
	C51.345039,194.823532 50.753338,192.864532 50.748352,191.600174 
	C50.659081,168.951736 50.683475,146.302841 50.683475,123.354393 
	C70.510536,122.328323 90.216866,121.212921 108.068466,132.335342 
	C108.209038,132.422928 108.333519,132.536682 108.463974,132.640152 
	C118.986862,140.985229 131.108185,142.783279 144.054993,141.506668 
	C146.503494,141.265228 149.081787,141.483276 151.499924,141.978699 
	C155.808380,142.861404 159.115814,145.141983 160.334991,149.711975 
	C161.544220,154.244659 159.343536,157.429611 156.125076,160.077972 
	C148.520767,166.335327 139.421875,166.844391 130.161774,166.549316 
	C127.501984,166.464584 124.848328,166.106766 122.189865,166.081223 
	C118.883865,166.049438 116.178917,167.986526 116.624809,171.031021 
	C116.935539,173.152588 119.850281,176.563126 121.561607,176.539062 
	C132.947144,176.378967 144.620331,177.312408 155.271622,171.889740 
	C161.079514,168.932907 165.650513,164.538345 167.749680,158.257675 
	C169.077438,154.285019 171.521332,152.067535 175.217010,150.327194 
	C185.569412,145.452057 195.693665,140.094360 206.018829,135.159027 
	C216.226868,130.279678 227.026642,135.018280 230.705322,145.805374 
	C231.000000,147.714355 231.000000,149.428711 230.717773,151.784424 
	C227.916611,155.971939 226.143188,160.656784 222.754913,162.875107 
	C204.059296,175.115173 185.283783,187.301834 165.903397,198.402969 
	C153.214523,205.671188 139.502396,211.175293 126.138496,217.226349 
	C122.986572,218.653503 119.391312,219.101547 116.000000,220.000000 
	C113.299988,220.000000 110.599968,220.000000 107.449982,220.000000 
z"/>
<path fill="#FFFFFF" opacity="1.000000" stroke="none" 
	d="
M1.000000,116.468658 
	C14.115036,116.000000 27.230072,116.000000 40.589127,116.000000 
	C40.589127,144.640778 40.589127,172.879669 40.589127,201.850601 
	C27.740973,201.850601 14.833955,201.850601 1.463469,201.925293 
	C1.000000,173.645767 1.000000,145.291550 1.000000,116.468658 
z"/>
<path fill="#FFFFFF" opacity="1.000000" stroke="none" 
	d="
M150.545898,1.000000 
	C153.627274,1.601706 156.238815,2.285359 158.884216,2.792506 
	C186.867340,8.157108 206.957718,32.500343 207.055984,61.199959 
	C207.154770,90.047752 187.048218,114.674805 158.906128,120.175179 
	C127.485474,126.316353 96.273224,106.628067 89.065285,76.120491 
	C81.485176,44.037689 100.182312,11.899961 131.414764,3.452771 
	C134.440948,2.634302 137.600281,2.308034 140.848907,1.376643 
	C144.030594,1.000000 147.061188,1.000000 150.545898,1.000000 
M114.608032,23.058914 
	C100.822075,34.979527 95.184204,50.267582 97.251366,68.075264 
	C100.636620,97.237633 129.460648,117.181198 158.180832,110.747459 
	C186.760651,104.345169 204.098907,74.549217 195.403046,46.683445 
	C185.968643,16.450943 145.893387,-0.948467 114.608032,23.058914 
z"/>

<path fill="#FFFFFF" opacity="1.000000" stroke="none" 
	d="
M140.837326,37.114853 
	C140.837418,35.466908 140.886520,34.298092 140.828354,33.134640 
	C140.656754,29.701456 141.655853,26.989214 145.601593,27.062407 
	C149.624390,27.137033 150.177048,30.083679 150.143845,33.388908 
	C150.075226,40.219776 150.109009,47.051865 150.128403,53.883369 
	C150.143143,59.075333 153.047379,61.966984 158.244263,61.984470 
	C163.242905,62.001289 168.242828,62.055805 173.239944,61.966965 
	C176.659195,61.906174 178.836426,63.505405 178.890518,66.815025 
	C178.942383,69.987503 176.693588,71.417374 173.579208,71.415756 
	C170.246765,71.414017 166.913498,71.377701 163.582077,71.438324 
	C159.080307,71.520233 154.786926,70.856644 150.906021,75.008125 
	C147.494583,78.657425 141.329193,77.302177 137.966034,73.541527 
	C134.667740,69.853416 134.243912,63.671410 137.890640,60.411995 
	C140.676117,57.922367 140.919830,55.274769 140.860764,52.092178 
	C140.771103,47.261780 140.837326,42.428493 140.837326,37.114853 
z"/>
</svg>