<svg version="1.1" id="Layer_1" xmlns="http://www.w3.org/2000/svg" xmlns:xlink="http://www.w3.org/1999/xlink" x="0px" y="0px"
	 width="100%" viewBox="0 0 225 225" enable-background="new 0 0 225 225" xml:space="preserve">
<path fill="#FFFFFF" opacity="1.000000" stroke="none" 
	d="
M166.000000,226.000000 
	C165.250000,226.000000 164.500000,226.000000 163.281281,225.659119 
	C160.153137,223.680054 157.163116,222.407257 154.885910,220.346695 
	C134.172241,201.603638 113.587166,182.718521 92.955147,163.885193 
	C84.391464,156.068085 75.805153,148.275772 67.140610,140.391632 
	C66.048950,141.164871 65.233772,141.707520 64.455505,142.298737 
	C52.950878,151.038605 41.425678,159.751740 29.965345,168.549362 
	C26.398573,171.287415 22.092049,173.204132 18.568729,170.275452 
	C12.274693,165.043655 6.810906,158.813019 1.000000,153.000000 
	C1.000000,151.933334 1.000000,150.866653 1.053173,149.044891 
	C4.244280,144.948822 7.213448,141.427536 10.552796,138.301727 
	C19.436886,129.985733 28.480509,121.840187 37.633068,113.469200 
	C26.885468,103.674171 16.537596,94.358078 6.352839,84.866943 
	C4.256229,82.913124 2.768417,80.306000 1.000000,78.000000 
	C1.000000,76.611107 1.000000,75.222221 1.342554,73.355591 
	C6.308350,68.162308 10.808249,63.317070 15.590528,58.768730 
	C20.110903,54.469479 24.410372,54.352352 29.436733,58.093845 
	C35.575287,62.663223 41.620258,67.358131 47.720879,71.978706 
	C54.174606,76.866730 60.646179,81.731194 67.125778,86.617882 
	C92.704292,63.267384 117.821976,40.149815 143.188950,17.309093 
	C149.723282,11.425507 157.041748,6.412783 164.000000,1.000001 
	C164.444443,1.000000 164.888901,1.000000 165.791626,1.362432 
	C168.604218,2.428536 171.093750,2.845700 173.290771,3.882587 
	C187.060486,10.381227 200.679001,17.206942 214.533966,23.514935 
	C219.980957,25.994879 223.956009,29.392157 226.000000,35.000000 
	C226.000000,87.020897 226.000000,139.041794 225.724762,191.748352 
	C222.770889,195.618042 220.723282,200.061066 217.307007,201.773254 
	C200.403320,210.245178 183.137894,217.995361 166.000000,226.000000 
M158.450882,70.955833 
	C139.867661,85.066154 121.284454,99.176476 102.407646,113.509720 
	C125.045624,130.690994 147.102051,147.430908 169.699951,164.581772 
	C169.699951,130.244781 169.699951,96.750984 169.699951,62.487900 
	C165.803391,65.412560 162.407089,67.961754 158.450882,70.955833 
z"/>
</svg>