<svg version="1.1" id="Layer_1" xmlns="http://www.w3.org/2000/svg" xmlns:xlink="http://www.w3.org/1999/xlink" x="0px" y="0px"
	 width="100%" viewBox="0 0 225 225" enable-background="new 0 0 225 225" xml:space="preserve">

<path fill="#FFFFFF" opacity="1.000000" stroke="none" 
	d="
M127.567513,105.592560 
	C122.646309,108.410660 118.042122,113.032356 113.408241,113.062332 
	C108.778358,113.092270 104.080605,108.593750 99.479652,105.963158 
	C87.670975,99.211533 75.899483,92.394882 63.278763,85.123512 
	C69.282669,81.849655 74.848732,78.830887 80.399475,75.784210 
	C90.429123,70.279152 100.421822,64.705467 110.509750,59.309643 
	C111.744514,58.649189 113.820030,58.248867 114.914093,58.834198 
	C130.811279,67.339302 146.607452,76.033234 163.218811,85.114502 
	C150.984360,92.130013 139.427933,98.756729 127.567513,105.592560 
z"/>
<path fill="#FFFFFF" opacity="1.000000" stroke="none" 
	d="
M91.970421,110.041077 
	C97.180367,113.011009 102.133598,115.709183 106.870804,118.744522 
	C108.125702,119.548576 109.479431,121.381699 109.494705,122.756683 
	C109.675606,139.046127 109.611153,155.338318 109.611153,172.265533 
	C108.112534,171.674072 106.921349,171.343735 105.865471,170.766083 
	C91.484886,162.898849 77.097710,155.042557 62.799850,147.027115 
	C61.518314,146.308701 60.027615,144.514252 60.013149,143.204300 
	C59.826092,126.264687 59.889301,109.322304 59.889301,91.585831 
	C70.820419,97.890907 81.226624,103.893227 91.970421,110.041077 
z"/>
<path fill="#FFFFFF" opacity="1.000000" stroke="none" 
	d="
M116.919960,154.998337 
	C116.919968,144.166672 116.838531,133.833450 117.009094,123.504372 
	C117.034248,121.981117 117.827492,119.754990 118.983795,119.074074 
	C134.541550,109.912521 150.226837,100.967537 166.410370,91.664261 
	C166.530075,93.382805 166.686874,94.596672 166.688187,95.810707 
	C166.704865,111.141876 166.766785,126.473793 166.601913,141.803207 
	C166.584030,143.466080 165.681274,145.932953 164.413071,146.645020 
	C148.969498,155.316147 133.380524,163.728302 116.919960,172.703491 
	C116.919960,166.542694 116.919960,161.020401 116.919960,154.998337 
z"/>
<path fill="#FFFFFF" opacity="1.000000" stroke="none" 
	d="
M95.914597,24.917816 
	C100.417152,22.434910 104.574799,20.081135 109.582718,17.245998 
	C109.582718,28.747671 109.644989,39.473316 109.472038,50.195168 
	C109.457191,51.116203 108.043236,52.304150 107.007507,52.875942 
	C90.753311,61.849411 74.480255,70.790161 58.113941,79.556206 
	C56.883163,80.215424 54.617237,80.035149 53.335770,79.330238 
	C44.621887,74.536873 36.043102,69.497902 26.517918,64.018959 
	C49.900532,50.822090 72.735115,37.934521 95.914597,24.917816 
z"/>
<path fill="#FFFFFF" opacity="1.000000" stroke="none" 
	d="
M29.522560,170.912308 
	C38.283508,165.373337 47.122486,160.103378 56.148277,155.175598 
	C57.668278,154.345718 60.379299,154.269409 61.889603,155.070755 
	C76.836281,163.001266 91.676933,171.134628 106.444130,179.395523 
	C107.858490,180.186737 109.437744,182.207611 109.474022,183.693466 
	C109.733505,194.319672 109.612610,204.955154 109.612610,216.618378 
	C82.556366,201.280594 56.109867,186.288452 29.522560,170.912308 
z"/>
<path fill="#FFFFFF" opacity="1.000000" stroke="none" 
	d="
M186.005600,72.015076 
	C180.636368,75.038925 175.677979,80.023308 170.556778,80.196579 
	C165.702728,80.360817 160.662201,75.511581 155.731583,72.816116 
	C143.955322,66.378281 132.253693,59.800083 120.385628,53.536835 
	C117.624809,52.079834 116.777267,50.478733 116.843246,47.447845 
	C117.055763,37.685432 116.922401,27.915489 116.922401,17.263634 
	C144.783539,32.947178 171.971100,48.251553 199.872238,63.957615 
	C195.023056,66.795418 190.684189,69.334587 186.005600,72.015076 
z"/>
<path fill="#FFFFFF" opacity="1.000000" stroke="none" 
	d="
M116.922531,207.895187 
	C116.922401,199.751678 116.752495,192.084122 117.053108,184.435043 
	C117.120117,182.730057 118.423004,180.348328 119.865585,179.534729 
	C134.585953,171.232468 149.423370,163.134857 164.325897,155.162903 
	C165.772064,154.389282 168.266861,154.116699 169.608994,154.842636 
	C178.900269,159.868179 188.015015,165.220123 197.886536,170.867783 
	C170.758469,186.144638 144.147385,201.130356 116.922531,216.461716 
	C116.922531,213.259384 116.922531,210.818604 116.922531,207.895187 
z"/>
<path fill="#FFFFFF" opacity="1.000000" stroke="none" 
	d="
M22.966183,97.000000 
	C22.966183,88.062088 22.966183,79.624176 22.966183,70.374260 
	C32.741371,75.973488 41.918434,81.140823 50.956242,86.541222 
	C51.888603,87.098351 52.408554,89.042992 52.415043,90.347313 
	C52.506954,108.832748 52.530724,127.319252 52.372486,145.803802 
	C52.360085,147.252899 51.237473,149.293091 50.011490,150.034744 
	C41.386311,155.252457 32.598637,160.201569 22.966183,165.753311 
	C22.966183,142.523666 22.966183,120.011833 22.966183,97.000000 
z"/>
<path fill="#FFFFFF" opacity="1.000000" stroke="none" 
	d="
M200.465332,72.030708 
	C201.553543,71.571007 202.270996,71.279472 203.141510,70.925758 
	C203.141510,102.451653 203.141510,133.639572 203.141510,165.502075 
	C193.627365,160.059814 184.575043,154.965546 175.651443,149.654984 
	C174.699905,149.088684 174.029831,147.260941 174.022995,146.014038 
	C173.920868,127.371948 173.898758,108.728661 174.059906,90.087410 
	C174.072052,88.683464 175.274521,86.735344 176.501282,85.986641 
	C184.275116,81.242264 192.211685,76.764549 200.465332,72.030708 
z"/>
</svg>